<svg width="15" height="14" viewBox="0 0 15 14" fill="none" xmlns="http://www.w3.org/2000/svg">
<g clip-path="url(#clip0_395_1628)">
<path d="M9.24902 1.22949H12.749C13.0366 1.22949 13.2703 1.4625 13.2705 1.75V5.25C13.2705 5.53765 13.0367 5.77148 12.749 5.77148H9.24902C8.96152 5.77131 8.72852 5.53754 8.72852 5.25V1.75L8.73926 1.64551C8.78086 1.44199 8.94101 1.28183 9.14453 1.24023L9.24902 1.22949Z" stroke="white"/>
<path d="M10.999 7.94141C11.1027 7.94141 11.203 7.9727 11.2881 8.0293L11.3682 8.09375L13.4062 10.1318C13.5039 10.2296 13.5586 10.3628 13.5586 10.501C13.5586 10.6045 13.5282 10.7051 13.4717 10.79L13.4062 10.8691L11.3672 12.9082C11.2694 13.0056 11.1371 13.0605 10.999 13.0605C10.8953 13.0605 10.795 13.0293 10.71 12.9727L10.6309 12.9082L8.5918 10.8691C8.49435 10.7714 8.43951 10.639 8.43945 10.501C8.43945 10.3629 8.49345 10.2297 8.59082 10.1318L8.5918 10.1328L10.6299 8.09375C10.7278 7.99616 10.8608 7.94141 10.999 7.94141Z" fill="#529E7E" stroke="white"/>
<path d="M2.24902 1.22949H5.74902C6.03656 1.22949 6.27033 1.4625 6.27051 1.75V5.25C6.27051 5.53765 6.03667 5.77148 5.74902 5.77148H2.24902C1.96152 5.77131 1.72852 5.53754 1.72852 5.25V1.75L1.73926 1.64551C1.78086 1.44199 1.94101 1.28183 2.14453 1.24023L2.24902 1.22949Z" fill="#529E7E" stroke="white"/>
<path d="M2.24902 8.22949H5.74902C6.03656 8.22949 6.27033 8.4625 6.27051 8.75V12.25C6.27051 12.5376 6.03667 12.7715 5.74902 12.7715H2.24902C1.96152 12.7713 1.72852 12.5375 1.72852 12.25V8.75L1.73926 8.64551C1.78086 8.44199 1.94101 8.28183 2.14453 8.24023L2.24902 8.22949Z" stroke="white"/>
</g>
<defs>
<clipPath id="clip0_395_1628">
<rect width="14" height="14" fill="white" transform="translate(0.5)"/>
</clipPath>
</defs>
</svg>
