<svg width="35" height="24" viewBox="0 0 35 24" fill="none" xmlns="http://www.w3.org/2000/svg">
<g clip-path="url(#clip0_1483_6314)">
<path d="M1.89375 0H32.6C33.6437 0 34.4937 0.85 34.4937 1.89375V22.1C34.4937 23.1438 33.6437 23.9937 32.6 23.9937H1.89375C0.85 24 0 23.15 0 22.1062V1.89375C0 0.85 0.85 0 1.89375 0Z" fill="#B22234"/>
<path d="M0.0125 1.70703H34.4937C34.5 1.76953 34.5062 1.83203 34.5062 1.90078V3.73828H0V1.89453C0 1.83203 0.00625 1.76953 0.0125 1.70703ZM34.5 5.41953V7.44453H0V5.41953H34.5ZM34.5 9.13203V11.157H0V9.13203H34.5ZM34.5 12.8445V14.8695H0V12.8445H34.5ZM34.5 16.557V18.582H0V16.557H34.5ZM34.5 20.2695V22.1008C34.5 22.1633 34.4938 22.232 34.4875 22.2945H0.0125C0.00625 22.2383 0 22.1695 0 22.107V20.2758H34.5V20.2695Z" fill="white"/>
<path d="M13 0V12.925H0V1.89375C0 0.85 0.85 0 1.89375 0H13Z" fill="#3C3B6E"/>
<path d="M0.76875 1.78906L1.2 3.13281L0.0625 2.30156H1.475L0.33125 3.13281L0.76875 1.78906Z" fill="white"/>
<path d="M0.76875 4.38672L1.2 5.73047L0.0625 4.89922H1.475L0.33125 5.73047L0.76875 4.38672Z" fill="white"/>
<path d="M0.76875 6.98828L1.2 8.33203L0.0625 7.50078H1.475L0.33125 8.33203L0.76875 6.98828Z" fill="white"/>
<path d="M0.76875 9.58984L1.2 10.9336L0.0625 10.1023H1.475L0.33125 10.9336L0.76875 9.58984Z" fill="white"/>
<path d="M2.29219 0.488281L2.72969 1.83203L1.58594 1.00078H3.00469L1.85469 1.83203L2.29219 0.488281Z" fill="white"/>
<path d="M2.29219 3.08984L2.72969 4.43359L1.58594 3.60234H3.00469L1.85469 4.43359L2.29219 3.08984Z" fill="white"/>
<path d="M2.29219 5.6875L2.72969 7.03125L1.58594 6.2H3.00469L1.85469 7.03125L2.29219 5.6875Z" fill="white"/>
<path d="M2.29219 8.28906L2.72969 9.63281L1.58594 8.80156H3.00469L1.85469 9.63281L2.29219 8.28906Z" fill="white"/>
<path d="M2.29219 10.8906L2.72969 12.2344L1.58594 11.4031H3.00469L1.85469 12.2344L2.29219 10.8906Z" fill="white"/>
<path d="M3.82344 1.78906L4.26094 3.13281L3.11719 2.30156H4.52969L3.38594 3.13281L3.82344 1.78906Z" fill="white"/>
<path d="M3.82344 4.38672L4.26094 5.73047L3.11719 4.89922H4.52969L3.38594 5.73047L3.82344 4.38672Z" fill="white"/>
<path d="M3.82344 6.98828L4.26094 8.33203L3.11719 7.50078H4.52969L3.38594 8.33203L3.82344 6.98828Z" fill="white"/>
<path d="M3.82344 9.58984L4.26094 10.9336L3.11719 10.1023H4.52969L3.38594 10.9336L3.82344 9.58984Z" fill="white"/>
<path d="M5.35469 0.488281L5.78594 1.83203L4.64844 1.00078H6.06094L4.91719 1.83203L5.35469 0.488281Z" fill="white"/>
<path d="M5.35469 3.08984L5.78594 4.43359L4.64844 3.60234H6.06094L4.91719 4.43359L5.35469 3.08984Z" fill="white"/>
<path d="M5.35469 5.6875L5.78594 7.03125L4.64844 6.2H6.06094L4.91719 7.03125L5.35469 5.6875Z" fill="white"/>
<path d="M5.35469 8.28906L5.78594 9.63281L4.64844 8.80156H6.06094L4.91719 9.63281L5.35469 8.28906Z" fill="white"/>
<path d="M5.35469 10.8906L5.78594 12.2344L4.64844 11.4031H6.06094L4.91719 12.2344L5.35469 10.8906Z" fill="white"/>
<path d="M6.87813 1.78906L7.31562 3.13281L6.17188 2.30156H7.58438L6.44063 3.13281L6.87813 1.78906Z" fill="white"/>
<path d="M6.87813 4.38672L7.31562 5.73047L6.17188 4.89922H7.58438L6.44063 5.73047L6.87813 4.38672Z" fill="white"/>
<path d="M6.87813 6.98828L7.31562 8.33203L6.17188 7.50078H7.58438L6.44063 8.33203L6.87813 6.98828Z" fill="white"/>
<path d="M6.87813 9.58984L7.31562 10.9336L6.17188 10.1023H7.58438L6.44063 10.9336L6.87813 9.58984Z" fill="white"/>
<path d="M8.40938 0.488281L8.84687 1.83203L7.70312 1.00078H9.11563L7.97188 1.83203L8.40938 0.488281Z" fill="white"/>
<path d="M8.40938 3.08984L8.84687 4.43359L7.70312 3.60234H9.11563L7.97188 4.43359L8.40938 3.08984Z" fill="white"/>
<path d="M8.40938 5.6875L8.84687 7.03125L7.70312 6.2H9.11563L7.97188 7.03125L8.40938 5.6875Z" fill="white"/>
<path d="M8.40938 8.28906L8.84687 9.63281L7.70312 8.80156H9.11563L7.97188 9.63281L8.40938 8.28906Z" fill="white"/>
<path d="M8.40938 10.8906L8.84687 12.2344L7.70312 11.4031H9.11563L7.97188 12.2344L8.40938 10.8906Z" fill="white"/>
<path d="M9.93672 1.78906L10.3742 3.13281L9.23047 2.30156H10.643L9.50547 3.13281L9.93672 1.78906Z" fill="white"/>
<path d="M9.93672 4.38672L10.3742 5.73047L9.23047 4.89922H10.643L9.50547 5.73047L9.93672 4.38672Z" fill="white"/>
<path d="M9.93672 6.98828L10.3742 8.33203L9.23047 7.50078H10.643L9.50547 8.33203L9.93672 6.98828Z" fill="white"/>
<path d="M9.93672 9.58984L10.3742 10.9336L9.23047 10.1023H10.643L9.50547 10.9336L9.93672 9.58984Z" fill="white"/>
<path d="M11.468 0.488281L11.9055 1.83203L10.7617 1.00078H12.1742L11.0305 1.83203L11.468 0.488281Z" fill="white"/>
<path d="M11.468 3.08984L11.9055 4.43359L10.7617 3.60234H12.1742L11.0305 4.43359L11.468 3.08984Z" fill="white"/>
<path d="M11.468 5.6875L11.9055 7.03125L10.7617 6.2H12.1742L11.0305 7.03125L11.468 5.6875Z" fill="white"/>
<path d="M11.468 8.28906L11.9055 9.63281L10.7617 8.80156H12.1742L11.0305 9.63281L11.468 8.28906Z" fill="white"/>
<path d="M11.468 10.8906L11.9055 12.2344L10.7617 11.4031H12.1742L11.0305 12.2344L11.468 10.8906Z" fill="white"/>
</g>
<defs>
<clipPath id="clip0_1483_6314">
<rect width="34.5" height="24" fill="white"/>
</clipPath>
</defs>
</svg>
