<svg width="21" height="20" viewBox="0 0 21 20" fill="none" xmlns="http://www.w3.org/2000/svg">
<g clip-path="url(#clip0_395_610)">
<path d="M10.7498 0.585938L11.6684 2.08547L13.3784 2.49578L12.2361 3.83281L12.3744 5.58594L10.7498 4.91273L9.12516 5.58594L9.2634 3.83281L8.12109 2.49578L9.83113 2.08547L10.7498 0.585938Z" stroke="white" stroke-miterlimit="10" stroke-linecap="round" stroke-linejoin="round"/>
<path d="M17.5349 2.89062L16.6163 4.39016L14.9062 4.80047L16.0485 6.1375L15.9103 7.89062L17.5349 7.21742L19.1595 7.89062L19.0213 6.1375L20.1636 4.80047L18.4535 4.39016L17.5349 2.89062Z" fill="#529E7E" stroke="white" stroke-miterlimit="10" stroke-linecap="round" stroke-linejoin="round"/>
<path d="M3.96461 2.89062L4.88324 4.39016L6.59324 4.80047L5.45098 6.1375L5.58918 7.89062L3.96461 7.21742L2.34 7.89062L2.4782 6.1375L1.33594 4.80047L3.04598 4.39016L3.96461 2.89062Z" fill="#529E7E" stroke="white" stroke-miterlimit="10" stroke-linecap="round" stroke-linejoin="round"/>
<path d="M7.85938 18.2731H8.33672C8.83164 18.2731 9.30586 18.4696 9.65586 18.8196C9.83047 18.9946 10.0367 19.1309 10.2609 19.2239C10.4852 19.3165 10.7273 19.3657 10.9746 19.3657H14.8688C15.7621 19.3657 16.5262 18.7235 16.6801 17.8434L17.2937 14.3282C17.4465 13.4555 16.7746 12.6563 15.8887 12.6563H12.9031L13.5316 10.6997C13.5867 10.5317 13.6129 10.361 13.6129 10.193C13.6129 9.50749 13.1762 8.86921 12.4891 8.64499C12.1141 8.52234 11.7109 8.72663 11.5883 9.10163L10.6984 11.8575C10.534 12.3614 10.1453 12.761 9.64648 12.9399L7.85938 13.5801" stroke="white" stroke-miterlimit="10" stroke-linecap="round" stroke-linejoin="round"/>
<path d="M7.85938 12.3828H4.89062V19.4141H7.85938V12.3828Z" fill="#529E7E" stroke="white" stroke-miterlimit="10" stroke-linecap="round" stroke-linejoin="round"/>
</g>
<defs>
<clipPath id="clip0_395_610">
<rect width="20" height="20" fill="white" transform="translate(0.75)"/>
</clipPath>
</defs>
</svg>
