<svg width="21" height="20" viewBox="0 0 21 20" fill="none" xmlns="http://www.w3.org/2000/svg">
<g clip-path="url(#clip0_395_622)">
<mask id="mask0_395_622" style="mask-type:luminance" maskUnits="userSpaceOnUse" x="0" y="0" width="21" height="20">
<path d="M0.5 1.90735e-06H20.5V20H0.5V1.90735e-06Z" fill="white"/>
</mask>
<g mask="url(#mask0_395_622)">
<path d="M9.22415 1.54476L8.39747 3.20815C8.19657 3.61237 7.80825 3.89257 7.35899 3.95741L5.51055 4.22413C4.37926 4.38737 3.92755 5.768 4.74614 6.56038L6.08368 7.85515C6.40879 8.16983 6.55712 8.62319 6.4804 9.06753L6.16462 10.8957C5.97137 12.0146 7.15399 12.8679 8.16583 12.3396L9.81911 11.4764C10.2209 11.2667 10.701 11.2667 11.1028 11.4764L12.7561 12.3396C13.7679 12.8679 14.9505 12.0146 14.7573 10.8957L14.4415 9.06753C14.3648 8.62319 14.5131 8.16983 14.8382 7.85515L16.1757 6.56038C16.9943 5.768 16.5427 4.38737 15.4114 4.22413L13.5629 3.95741C13.1136 3.89257 12.7253 3.61237 12.5244 3.20815L11.6977 1.54476C11.1918 0.526749 9.73004 0.526749 9.22415 1.54476Z" fill="#529E7E" stroke="white" stroke-miterlimit="10" stroke-linecap="round" stroke-linejoin="round"/>
<path d="M3.83393 13.2407C3.6944 13.3819 3.51057 13.4764 3.30827 13.5055L2.07206 13.6839C1.31542 13.7931 1.01335 14.7164 1.56085 15.2464L2.45538 16.1123C2.67276 16.3228 2.77194 16.626 2.72065 16.9232L2.50948 18.1458C2.38022 18.8941 3.17112 19.4648 3.84784 19.1115L4.95358 18.5342C5.22229 18.3939 5.54335 18.3939 5.81206 18.5342L6.91776 19.1115C7.59452 19.4648 8.38542 18.8941 8.25616 18.1458L8.04499 16.9232C7.99366 16.626 8.09284 16.3228 8.31026 16.1123L9.20479 15.2464" stroke="white" stroke-miterlimit="10" stroke-linecap="round" stroke-linejoin="round"/>
<path d="M17.1658 13.2407C17.3053 13.3819 17.4891 13.4764 17.6914 13.5055L18.9277 13.6839C19.6843 13.7931 19.9864 14.7164 19.4389 15.2464L18.5443 16.1123C18.327 16.3228 18.2278 16.626 18.2791 16.9232L18.4902 18.1458C18.6195 18.8941 17.8286 19.4648 17.1519 19.1115L16.0461 18.5342C15.7774 18.3939 15.4564 18.3939 15.1877 18.5342L14.082 19.1115C13.4052 19.4648 12.6143 18.8941 12.7436 18.1458L12.9547 16.9232C13.0061 16.626 12.9069 16.3228 12.6895 16.1123L11.7949 15.2464" stroke="white" stroke-miterlimit="10" stroke-linecap="round" stroke-linejoin="round"/>
</g>
</g>
<defs>
<clipPath id="clip0_395_622">
<rect width="20" height="20" fill="white" transform="translate(0.5)"/>
</clipPath>
</defs>
</svg>
