<svg width="56" height="56" viewBox="0 0 56 56" fill="none" xmlns="http://www.w3.org/2000/svg">
<ellipse cx="27.9999" cy="28" rx="27.9999" ry="28" fill="#529E7E"/>
<g clip-path="url(#clip0_68_2640)">
<path d="M28.5004 16C20.9365 16 14.8047 21.3727 14.8047 28.0001C14.8047 31.4149 16.4326 34.4964 19.0453 36.6815C19.0119 37.7235 18.6549 38.754 18.0301 39.5812C19.2407 39.532 20.4265 39.0408 21.3383 38.2301C23.4221 39.3515 25.8749 39.9996 28.5 39.9996C36.0639 39.9996 42.1957 34.6269 42.1957 27.9995C42.1957 21.3722 36.0643 16 28.5004 16ZM37.0126 33.8151C36.7621 34.0946 36.457 34.3177 36.1169 34.4701C35.7768 34.6224 35.4092 34.7007 35.0377 34.6999H21.9631C21.5916 34.7007 21.2239 34.6224 20.8838 34.4701C20.5437 34.3177 20.2387 34.0946 19.9882 33.8151C18.559 32.2112 17.7073 30.1937 17.7073 28.0001C17.7073 25.8065 18.5588 23.7892 19.988 22.1853C20.2385 21.9057 20.5436 21.6825 20.8837 21.5301C21.2238 21.3777 21.5915 21.2995 21.9631 21.3003H35.0375C35.4133 21.3007 35.7849 21.3814 36.1282 21.5373C36.4715 21.6931 36.7788 21.9206 37.0303 22.2051C38.449 23.8057 39.2935 25.8164 39.2935 28.0001C39.2935 30.1928 38.4418 32.2112 37.0126 33.8151Z" fill="white"/>
<path d="M14.152 28.0003C14.152 29.6463 14.5024 31.2425 15.1945 32.7506C13.3454 32.1315 12 30.9059 12 28.0003C12 25.2442 13.3456 23.8691 15.1952 23.25C14.5026 24.7589 14.152 26.3558 14.152 28.0003Z" fill="white"/>
<path d="M13.5977 19.6861V23.2837C13.1302 23.5873 12.7192 23.9728 12.3837 24.4223L12.375 24.434V19.6861C12.3778 19.5229 12.4434 19.3673 12.5577 19.2528C12.6721 19.1384 12.826 19.0742 12.9863 19.0742C13.1467 19.0742 13.3006 19.1384 13.415 19.2528C13.5293 19.3673 13.5949 19.5229 13.5977 19.6861Z" fill="white"/>
<path d="M42.8472 28.0003C42.8472 29.6463 42.4968 31.2425 41.8047 32.7506C43.6538 32.1315 44.9999 30.9059 44.9999 28.0003C44.9999 25.2442 43.6543 23.8691 41.8047 23.25C42.4966 24.7589 42.8472 26.3558 42.8472 28.0003Z" fill="white"/>
<path d="M43.4062 19.6861V23.2837C43.8737 23.5873 44.2847 23.9728 44.6203 24.4223L44.6289 24.434V19.6861C44.6262 19.5229 44.5606 19.3673 44.4462 19.2528C44.3319 19.1384 44.1779 19.0742 44.0176 19.0742C43.8572 19.0742 43.7033 19.1384 43.589 19.2528C43.4746 19.3673 43.409 19.5229 43.4062 19.6861Z" fill="white"/>
<path d="M25.5858 27.6288C25.1886 28.2525 24.6138 27.6288 23.4144 27.6288C22.215 27.6288 21.6412 28.2525 21.2435 27.6288C20.8584 27.0249 21.9208 25.5352 23.4144 25.5352C24.9081 25.5352 25.9706 27.0249 25.5858 27.6288Z" fill="white"/>
<path d="M35.75 27.6288C35.3528 28.2525 34.7779 27.6288 33.5787 27.6288C32.3795 27.6288 31.8054 28.2525 31.4075 27.6288C31.0225 27.0249 32.085 25.5352 33.5787 25.5352C35.0723 25.5352 36.1349 27.0249 35.75 27.6288Z" fill="white"/>
<path d="M28.4981 30.4668C27.6612 30.4668 27.1081 29.7909 27.0857 29.7622C27.0271 29.6872 26.9998 29.5916 27.0099 29.4963C27.0199 29.4009 27.0664 29.3135 27.1393 29.2528C27.2122 29.1921 27.3057 29.1631 27.3994 29.172C27.4932 29.181 27.5797 29.2272 27.6403 29.3006C27.6424 29.3034 28.0053 29.7376 28.4981 29.7376C28.9909 29.7376 29.3538 29.3034 29.3574 29.299C29.3869 29.2609 29.4236 29.2292 29.4653 29.2057C29.507 29.1822 29.5529 29.1674 29.6002 29.1623C29.6476 29.1571 29.6955 29.1615 29.7412 29.1754C29.7868 29.1893 29.8293 29.2124 29.8661 29.2432C29.9029 29.274 29.9333 29.312 29.9555 29.3549C29.9777 29.3979 29.9913 29.4449 29.9954 29.4932C29.9995 29.5415 29.9942 29.5902 29.9796 29.6364C29.965 29.6826 29.9415 29.7254 29.9105 29.7622C29.8881 29.7909 29.335 30.4668 28.4981 30.4668Z" fill="white"/>
</g>
<defs>
<clipPath id="clip0_68_2640">
<rect width="32.9999" height="24" fill="white" transform="translate(12 16)"/>
</clipPath>
</defs>
</svg>
