<svg width="224" height="56" viewBox="0 0 224 56" fill="none" xmlns="http://www.w3.org/2000/svg">
<ellipse cx="27.9999" cy="28" rx="27.9999" ry="28" fill="#529E7E"/>
<g clip-path="url(#clip0_193_5390)">
<path d="M28.6878 16C21.0379 16 14.8364 21.3727 14.8364 28.0001C14.8364 31.4149 16.4829 34.4964 19.1253 36.6815C19.0915 37.7235 18.7304 38.754 18.0985 39.5812C19.3228 39.532 20.5222 39.0408 21.4443 38.2301C23.5518 39.3515 26.0324 39.9996 28.6874 39.9996C36.3373 39.9996 42.5388 34.6269 42.5388 27.9995C42.5388 21.3722 36.3377 16 28.6878 16ZM37.2968 33.8151C37.0434 34.0946 36.7349 34.3177 36.3909 34.4701C36.047 34.6224 35.6752 34.7007 35.2994 34.6999H22.0762C21.7005 34.7007 21.3286 34.6224 20.9847 34.4701C20.6407 34.3177 20.3322 34.0946 20.0789 33.8151C18.6334 32.2112 17.772 30.1937 17.772 28.0001C17.772 25.8065 18.6332 23.7892 20.0787 22.1853C20.332 21.9057 20.6405 21.6825 20.9845 21.5301C21.3286 21.3777 21.7004 21.2995 22.0762 21.3003H35.2992C35.6793 21.3007 36.0552 21.3814 36.4023 21.5373C36.7495 21.6931 37.0603 21.9206 37.3146 22.2051C38.7495 23.8057 39.6036 25.8164 39.6036 28.0001C39.6036 30.1928 38.7422 32.2112 37.2968 33.8151Z" fill="white"/>
<path d="M14.1765 28.0003C14.1765 29.6463 14.5308 31.2425 15.2308 32.7506C13.3607 32.1315 12 30.9059 12 28.0003C12 25.2442 13.3609 23.8691 15.2316 23.25C14.531 24.7589 14.1765 26.3558 14.1765 28.0003Z" fill="white"/>
<path d="M13.6157 19.6861V23.2837C13.1429 23.5873 12.7273 23.9728 12.3879 24.4223L12.3792 24.434V19.6861C12.3819 19.5229 12.4483 19.3673 12.564 19.2528C12.6796 19.1384 12.8353 19.0742 12.9974 19.0742C13.1596 19.0742 13.3153 19.1384 13.4309 19.2528C13.5466 19.3673 13.6129 19.5229 13.6157 19.6861Z" fill="white"/>
<path d="M43.1977 28.0003C43.1977 29.6463 42.8433 31.2425 42.1433 32.7506C44.0134 32.1315 45.3749 30.9059 45.3749 28.0003C45.3749 25.2442 44.014 23.8691 42.1433 23.25C42.8431 24.7589 43.1977 26.3558 43.1977 28.0003Z" fill="white"/>
<path d="M43.7632 19.6861V23.2837C44.236 23.5873 44.6517 23.9728 44.991 24.4223L44.9998 24.434V19.6861C44.997 19.5229 44.9306 19.3673 44.815 19.2528C44.6993 19.1384 44.5436 19.0742 44.3815 19.0742C44.2193 19.0742 44.0636 19.1384 43.948 19.2528C43.8323 19.3673 43.766 19.5229 43.7632 19.6861Z" fill="white"/>
<path d="M25.74 27.6288C25.3384 28.2525 24.757 27.6288 23.544 27.6288C22.331 27.6288 21.7506 28.2525 21.3484 27.6288C20.9589 27.0249 22.0334 25.5352 23.544 25.5352C25.0546 25.5352 26.1293 27.0249 25.74 27.6288Z" fill="white"/>
<path d="M36.0199 27.6288C35.6182 28.2525 35.0367 27.6288 33.8238 27.6288C32.611 27.6288 32.0304 28.2525 31.628 27.6288C31.2386 27.0249 32.3132 25.5352 33.8238 25.5352C35.3345 25.5352 36.4091 27.0249 36.0199 27.6288Z" fill="white"/>
<path d="M28.6856 30.4668C27.8392 30.4668 27.2798 29.7909 27.2571 29.7622C27.1978 29.6872 27.1703 29.5916 27.1804 29.4963C27.1906 29.4009 27.2376 29.3135 27.3113 29.2528C27.3851 29.1921 27.4796 29.1631 27.5744 29.172C27.6692 29.181 27.7568 29.2272 27.818 29.3006C27.8202 29.3034 28.1872 29.7376 28.6856 29.7376C29.184 29.7376 29.551 29.3034 29.5546 29.299C29.5845 29.2609 29.6216 29.2292 29.6638 29.2057C29.7059 29.1822 29.7523 29.1674 29.8002 29.1623C29.8482 29.1571 29.8966 29.1615 29.9428 29.1754C29.989 29.1893 30.0319 29.2124 30.0691 29.2432C30.1063 29.274 30.1371 29.312 30.1595 29.3549C30.182 29.3979 30.1957 29.4449 30.1999 29.4932C30.2041 29.5415 30.1986 29.5902 30.1839 29.6364C30.1692 29.6826 30.1454 29.7254 30.1141 29.7622C30.0914 29.7909 29.532 30.4668 28.6856 30.4668Z" fill="white"/>
</g>
<path d="M69.3555 19C72.8745 19 75.1099 20.9493 75.2051 24.0879H72.1621C72.0908 22.59 71.0204 21.7101 69.3086 21.71C67.4302 21.71 66.2168 22.614 66.2168 24.0645C66.2169 25.3006 66.8829 25.9903 68.333 26.3232L71.0684 26.918C74.0401 27.56 75.4902 29.0814 75.4902 31.6729C75.4902 34.9066 72.9698 36.999 69.1416 36.999C65.4326 36.9989 63.007 35.0258 62.9355 31.9111H65.9795C66.0034 33.3851 67.1921 34.2646 69.1416 34.2646C71.1627 34.2646 72.4473 33.385 72.4473 31.9346C72.4473 30.7695 71.8524 30.0796 70.4258 29.7705L67.668 29.1523C64.7195 28.5103 63.1738 26.8223 63.1738 24.1592C63.1739 21.1158 65.694 19.0002 69.3555 19ZM94.459 31.2686C94.459 33.5037 95.3392 34.4072 96.9561 34.4072C98.7868 34.4072 99.667 33.3375 99.667 31.1025V24.9443H102.567V36.6904H99.8809L99.667 35.1211C98.9537 36.2386 97.4316 36.999 95.8623 36.999C93.1517 36.999 91.5586 35.1681 91.5586 32.291V24.9443H94.459V31.2686ZM119.688 24.5869C122.898 24.587 125.085 26.3707 125.395 29.2002H122.494C122.161 27.8688 121.187 27.1788 119.808 27.1787C117.953 27.1787 116.716 28.5819 116.716 30.793C116.716 33.0042 117.857 34.3837 119.712 34.3838C121.162 34.3838 122.185 33.6706 122.494 32.3867H125.419C125.062 35.121 122.779 36.999 119.712 36.999C116.145 36.9989 113.815 34.526 113.815 30.793C113.816 27.1552 116.217 24.5869 119.688 24.5869ZM132.737 24.5869C136.256 24.5869 138.492 26.9417 138.492 30.6035V31.4824L129.646 31.5068C129.861 33.5752 130.954 34.6209 132.88 34.6211C134.473 34.6211 135.52 34.0033 135.853 32.8857H138.539C138.04 35.4537 135.9 36.9989 132.833 36.999C129.338 36.999 126.889 34.4552 126.889 30.8174C126.889 27.132 129.29 24.5871 132.737 24.5869ZM176.809 24.5869C180.019 24.5869 182.206 26.3707 182.516 29.2002H179.615C179.282 27.8686 178.307 27.1787 176.928 27.1787C175.073 27.1788 173.837 28.5819 173.837 30.793C173.837 33.0043 174.978 34.3838 176.833 34.3838C178.283 34.3837 179.306 33.6706 179.615 32.3867H182.539C182.182 35.1209 179.9 36.9989 176.833 36.999C173.266 36.999 170.936 34.5261 170.936 30.793C170.936 27.1553 173.337 24.5871 176.809 24.5869ZM189.858 24.5869C193.377 24.5869 195.612 26.9418 195.612 30.6035V31.4824L186.768 31.5068C186.982 33.5754 188.075 34.6211 190.001 34.6211C191.594 34.6211 192.641 34.0033 192.974 32.8857H195.66C195.161 35.4537 193.02 36.999 189.953 36.999C186.458 36.9989 184.009 34.4551 184.009 30.8174C184.009 27.1318 186.411 24.5869 189.858 24.5869ZM83.4043 24.6104C87.0422 24.6104 89.6816 27.1312 89.6816 30.793C89.6816 34.4546 87.0422 36.9746 83.4043 36.9746C79.7664 36.9746 77.127 34.4546 77.127 30.793C77.127 27.1312 79.7663 24.6104 83.4043 24.6104ZM154.108 24.6104C157.746 24.6104 160.386 27.1312 160.386 30.793C160.386 34.4546 157.746 36.9746 154.108 36.9746C150.471 36.9744 147.832 34.4545 147.832 30.793C147.832 27.1314 150.471 24.6106 154.108 24.6104ZM111.65 24.7305C112.055 24.7305 112.459 24.7776 112.935 24.8965V27.583H111.865C109.773 27.583 108.465 28.7008 108.465 30.9834V36.6904H105.563V24.9678H108.298L108.465 26.6797C108.964 25.5148 110.081 24.7306 111.65 24.7305ZM145.568 19C146.02 19 146.567 19.0231 147.066 19.1182V21.5908H146.044C144.57 21.5909 144.213 22.3525 144.213 23.5176V24.9443H147.02V27.3691H144.213V36.6904H141.336V27.3691H139.648V24.9443H141.336V23.5176C141.336 20.3315 143.024 19.0001 145.568 19ZM168.773 24.7305C169.177 24.7305 169.581 24.7777 170.057 24.8965V27.583H168.987C166.895 27.583 165.587 28.7008 165.587 30.9834V36.6904H162.686V24.9678H165.421L165.587 26.6797C166.086 25.5146 167.204 24.7305 168.773 24.7305ZM218.777 36.6895H215.567L214.164 32.6709H207.673L206.271 36.6895H203.107L209.385 19.3076H212.5L218.777 36.6895ZM224 36.6895H220.956V19.3076H224V36.6895ZM83.4043 27.2021C81.407 27.2021 80.0273 28.653 80.0273 30.793C80.0274 32.9329 81.407 34.3828 83.4043 34.3828C85.4015 34.3828 86.7802 32.9328 86.7803 30.793C86.7803 28.653 85.4016 27.2022 83.4043 27.2021ZM154.108 27.2021C152.111 27.2024 150.732 28.6531 150.732 30.793C150.733 32.9327 152.111 34.3826 154.108 34.3828C156.106 34.3828 157.485 32.9329 157.485 30.793C157.485 28.653 156.106 27.2021 154.108 27.2021ZM210.931 23.1602C210.859 23.493 210.716 24.0158 210.55 24.4912L208.577 30.1035H213.285L211.287 24.4912C211.144 24.0396 210.978 23.5167 210.931 23.1602ZM132.762 26.9648C131.05 26.9648 130.003 27.8928 129.718 29.6523H135.615C135.615 28.0355 134.497 26.965 132.762 26.9648ZM189.882 26.9648C188.17 26.9649 187.124 27.8929 186.839 29.6523H192.735C192.735 28.0355 191.618 26.9648 189.882 26.9648Z" fill="white"/>
<defs>
<clipPath id="clip0_193_5390">
<rect width="33.375" height="24" fill="white" transform="translate(11.9999 16)"/>
</clipPath>
</defs>
</svg>
