<svg width="61" height="60" viewBox="0 0 61 60" fill="none" xmlns="http://www.w3.org/2000/svg">
<ellipse cx="30.7095" cy="30" rx="30" ry="30" fill="white"/>
<g clip-path="url(#clip0_68_5)">
<path d="M31.2452 17.1428C23.141 17.1428 16.5712 22.8993 16.5712 30.0001C16.5712 33.6588 18.3155 36.9604 21.1148 39.3016C21.079 40.418 20.6964 41.5221 20.027 42.4084C21.3241 42.3557 22.5946 41.8294 23.5716 40.9608C25.8042 42.1622 28.4322 42.8567 31.2449 42.8567C39.3491 42.8567 45.9189 37.1002 45.9189 29.9995C45.9189 22.8987 39.3494 17.1428 31.2452 17.1428ZM40.3655 36.2304C40.0971 36.5299 39.7703 36.7689 39.4059 36.9322C39.0415 37.0954 38.6476 37.1793 38.2495 37.1784H24.241C23.8429 37.1793 23.449 37.0954 23.0846 36.9322C22.7202 36.7689 22.3934 36.5299 22.125 36.2304C20.5937 34.512 19.6812 32.3504 19.6812 30.0001C19.6812 27.6498 20.5935 25.4883 22.1248 23.7699C22.3932 23.4703 22.72 23.2313 23.0845 23.068C23.4489 22.9047 23.8429 22.8208 24.241 22.8217H38.2493C38.652 22.8221 39.0501 22.9086 39.4179 23.0756C39.7857 23.2426 40.115 23.4864 40.3844 23.7912C41.9045 25.5061 42.8093 27.6604 42.8093 30.0001C42.8093 32.3494 41.8967 34.512 40.3655 36.2304Z" fill="#529E7E"/>
<path d="M15.8726 30.0001C15.8726 31.7637 16.248 33.4739 16.9896 35.0897C15.0084 34.4264 13.5669 33.1132 13.5669 30.0001C13.5669 27.0471 15.0086 25.5739 16.9904 24.9105C16.2482 26.5272 15.8726 28.2381 15.8726 30.0001Z" fill="#529E7E"/>
<path d="M15.2782 21.0936V24.9481C14.7774 25.2734 14.337 25.6864 13.9775 26.1681L13.9682 26.1807V21.0936C13.9712 20.9187 14.0415 20.752 14.164 20.6293C14.2865 20.5067 14.4514 20.438 14.6232 20.438C14.795 20.438 14.9599 20.5067 15.0825 20.6293C15.205 20.752 15.2753 20.9187 15.2782 21.0936Z" fill="#529E7E"/>
<path d="M46.6179 30.0001C46.6179 31.7637 46.2425 33.4739 45.5009 35.0897C47.4821 34.4264 48.9244 33.1132 48.9244 30.0001C48.9244 27.0471 47.4827 25.5739 45.5009 24.9105C46.2423 26.5272 46.6179 28.2381 46.6179 30.0001Z" fill="#529E7E"/>
<path d="M47.2122 21.0936V24.9481C47.7131 25.2734 48.1535 25.6864 48.513 26.1681L48.5223 26.1807V21.0936C48.5193 20.9187 48.449 20.752 48.3265 20.6293C48.204 20.5067 48.0391 20.438 47.8673 20.438C47.6955 20.438 47.5305 20.5067 47.408 20.6293C47.2855 20.752 47.2152 20.9187 47.2122 21.0936Z" fill="#529E7E"/>
<path d="M28.127 29.6014C27.7014 30.2697 27.0856 29.6014 25.8005 29.6014C24.5155 29.6014 23.9006 30.2697 23.4745 29.6014C23.0619 28.9544 24.2002 27.3583 25.8005 27.3583C27.4009 27.3583 28.5393 28.9544 28.127 29.6014Z" fill="#529E7E"/>
<path d="M39.0162 29.6014C38.5907 30.2697 37.9746 29.6014 36.6898 29.6014C35.4049 29.6014 34.7898 30.2697 34.3635 29.6014C33.951 28.9544 35.0894 27.3583 36.6898 27.3583C38.2901 27.3583 39.4285 28.9544 39.0162 29.6014Z" fill="#529E7E"/>
<path d="M31.2452 32.6418C30.3486 32.6418 29.7559 31.9176 29.7319 31.8869C29.6691 31.8065 29.6399 31.7041 29.6507 31.602C29.6614 31.4998 29.7112 31.4061 29.7894 31.341C29.8675 31.276 29.9676 31.2449 30.0681 31.2545C30.1685 31.2641 30.2612 31.3136 30.3261 31.3923C30.3284 31.3953 30.7172 31.8605 31.2452 31.8605C31.7733 31.8605 32.162 31.3953 32.1659 31.3906C32.1975 31.3497 32.2368 31.3158 32.2815 31.2906C32.3262 31.2655 32.3753 31.2496 32.4261 31.2441C32.4769 31.2385 32.5282 31.2433 32.5771 31.2582C32.626 31.2731 32.6715 31.2978 32.7109 31.3308C32.7504 31.3638 32.7829 31.4045 32.8067 31.4505C32.8305 31.4965 32.845 31.5469 32.8495 31.5987C32.8539 31.6504 32.8482 31.7026 32.8325 31.7521C32.8169 31.8016 32.7918 31.8474 32.7585 31.8869C32.7346 31.9176 32.1419 32.6418 31.2452 32.6418Z" fill="#529E7E"/>
</g>
<defs>
<clipPath id="clip0_68_5">
<rect width="35.3571" height="25.7143" fill="white" transform="translate(13.5667 17.1428)"/>
</clipPath>
</defs>
</svg>
