<svg width="282" height="60" viewBox="0 0 282 60" fill="none" xmlns="http://www.w3.org/2000/svg">
<ellipse cx="30.7095" cy="30" rx="30" ry="30" fill="white"/>
<g clip-path="url(#clip0_68_4)">
<path d="M31.2452 17.1428C23.141 17.1428 16.5712 22.8993 16.5712 30.0001C16.5712 33.6588 18.3155 36.9604 21.1148 39.3016C21.079 40.418 20.6964 41.5221 20.027 42.4084C21.3241 42.3557 22.5946 41.8294 23.5716 40.9608C25.8042 42.1622 28.4322 42.8567 31.2449 42.8567C39.3491 42.8567 45.9189 37.1002 45.9189 29.9995C45.9189 22.8987 39.3494 17.1428 31.2452 17.1428ZM40.3655 36.2304C40.0971 36.5299 39.7703 36.7689 39.4059 36.9322C39.0415 37.0954 38.6476 37.1793 38.2495 37.1784H24.241C23.8429 37.1793 23.449 37.0954 23.0846 36.9322C22.7202 36.7689 22.3934 36.5299 22.125 36.2304C20.5937 34.512 19.6812 32.3504 19.6812 30.0001C19.6812 27.6498 20.5935 25.4883 22.1248 23.7699C22.3932 23.4703 22.72 23.2313 23.0845 23.068C23.4489 22.9047 23.8429 22.8208 24.241 22.8217H38.2493C38.652 22.8221 39.0501 22.9086 39.4179 23.0756C39.7857 23.2426 40.115 23.4864 40.3844 23.7912C41.9045 25.5061 42.8093 27.6604 42.8093 30.0001C42.8093 32.3494 41.8967 34.512 40.3655 36.2304Z" fill="#529E7E"/>
<path d="M15.8726 30.0001C15.8726 31.7637 16.248 33.4739 16.9896 35.0897C15.0084 34.4264 13.5669 33.1132 13.5669 30.0001C13.5669 27.0471 15.0086 25.5739 16.9904 24.9105C16.2482 26.5272 15.8726 28.2381 15.8726 30.0001Z" fill="#529E7E"/>
<path d="M15.2782 21.0936V24.9481C14.7774 25.2734 14.337 25.6864 13.9775 26.1681L13.9682 26.1807V21.0936C13.9712 20.9187 14.0415 20.752 14.164 20.6293C14.2865 20.5067 14.4514 20.438 14.6232 20.438C14.795 20.438 14.9599 20.5067 15.0825 20.6293C15.205 20.752 15.2753 20.9187 15.2782 21.0936Z" fill="#529E7E"/>
<path d="M46.6179 30.0001C46.6179 31.7637 46.2425 33.4739 45.5009 35.0897C47.4821 34.4264 48.9244 33.1132 48.9244 30.0001C48.9244 27.0471 47.4827 25.5739 45.5009 24.9105C46.2423 26.5272 46.6179 28.2381 46.6179 30.0001Z" fill="#529E7E"/>
<path d="M47.2122 21.0936V24.9481C47.7131 25.2734 48.1535 25.6864 48.513 26.1681L48.5223 26.1807V21.0936C48.5193 20.9187 48.449 20.752 48.3265 20.6293C48.204 20.5067 48.0391 20.438 47.8673 20.438C47.6955 20.438 47.5305 20.5067 47.408 20.6293C47.2855 20.752 47.2152 20.9187 47.2122 21.0936Z" fill="#529E7E"/>
<path d="M28.127 29.6014C27.7014 30.2697 27.0856 29.6014 25.8005 29.6014C24.5155 29.6014 23.9006 30.2697 23.4745 29.6014C23.0619 28.9544 24.2002 27.3583 25.8005 27.3583C27.4009 27.3583 28.5393 28.9544 28.127 29.6014Z" fill="#529E7E"/>
<path d="M39.0162 29.6014C38.5907 30.2697 37.9746 29.6014 36.6898 29.6014C35.4049 29.6014 34.7898 30.2697 34.3635 29.6014C33.951 28.9544 35.0894 27.3583 36.6898 27.3583C38.2901 27.3583 39.4285 28.9544 39.0162 29.6014Z" fill="#529E7E"/>
<path d="M31.2452 32.6418C30.3486 32.6418 29.7559 31.9176 29.7319 31.8869C29.6691 31.8065 29.6399 31.7041 29.6507 31.602C29.6614 31.4998 29.7112 31.4061 29.7894 31.341C29.8675 31.276 29.9676 31.2449 30.0681 31.2545C30.1685 31.2641 30.2612 31.3136 30.3261 31.3923C30.3284 31.3953 30.7172 31.8605 31.2452 31.8605C31.7733 31.8605 32.162 31.3953 32.1659 31.3906C32.1975 31.3497 32.2368 31.3158 32.2815 31.2906C32.3262 31.2655 32.3753 31.2496 32.4261 31.2441C32.4769 31.2385 32.5282 31.2433 32.5771 31.2582C32.626 31.2731 32.6715 31.2978 32.7109 31.3308C32.7504 31.3638 32.7829 31.4045 32.8067 31.4505C32.8305 31.4965 32.845 31.5469 32.8495 31.5987C32.8539 31.6504 32.8482 31.7026 32.8325 31.7521C32.8169 31.8016 32.7918 31.8474 32.7585 31.8869C32.7346 31.9176 32.1419 32.6418 31.2452 32.6418Z" fill="#529E7E"/>
</g>
<path d="M86.1782 17.9998C90.6182 17.9998 93.4381 20.4597 93.5581 24.4197H89.7182C89.6282 22.5297 88.2785 21.4197 86.1186 21.4197C83.7487 21.4197 82.2184 22.5595 82.2182 24.3894C82.2182 25.9493 83.0583 26.82 84.8882 27.24L88.3383 27.99C92.0883 28.8 93.9184 30.72 93.9184 33.99C93.9182 38.0697 90.7384 40.7096 85.9087 40.7097C81.2287 40.7097 78.1687 38.2197 78.0786 34.2898H81.9184C81.9485 36.1497 83.4487 37.2595 85.9087 37.2595C88.4583 37.2595 90.0783 36.1498 90.0786 34.3201C90.0786 32.8502 89.3286 31.9796 87.5288 31.5896L84.0483 30.8093C80.3284 29.9993 78.3784 27.8695 78.3784 24.5095C78.3784 20.6697 81.5584 17.9999 86.1782 17.9998ZM117.851 33.4792C117.851 36.2992 118.961 37.4392 121.001 37.4392C123.311 37.4391 124.421 36.0892 124.421 33.2693V25.4998H128.082V40.3191H124.691L124.421 38.3396C123.521 39.7495 121.601 40.7096 119.622 40.7097C116.202 40.7097 114.191 38.3993 114.191 34.7693V25.4998H117.851V33.4792ZM149.682 25.0496C153.732 25.0496 156.492 27.299 156.882 30.8689H153.222C152.802 29.1891 151.572 28.3191 149.832 28.3191C147.493 28.3191 145.932 30.0889 145.932 32.8787C145.932 35.6687 147.372 37.4089 149.712 37.4089C151.542 37.4089 152.832 36.5092 153.222 34.8894H156.913C156.462 38.3393 153.582 40.7087 149.712 40.7087C145.212 40.7087 142.272 37.5887 142.272 32.8787C142.272 28.289 145.302 25.0497 149.682 25.0496ZM166.147 25.0496C170.587 25.0497 173.407 28.0195 173.407 32.6394V33.7488L162.247 33.7791C162.517 36.3891 163.897 37.7087 166.327 37.7087C168.337 37.7087 169.657 36.9292 170.077 35.5193H173.466C172.836 38.7592 170.136 40.7087 166.266 40.7087C161.856 40.7085 158.766 37.4988 158.766 32.9089C158.766 28.259 161.797 25.0496 166.147 25.0496ZM221.75 25.0496C225.8 25.0496 228.561 27.299 228.951 30.8689H225.29C224.87 29.1891 223.641 28.3191 221.901 28.3191C219.561 28.3191 218.001 30.0889 218 32.8787C218 35.6686 219.441 37.4089 221.781 37.4089C223.611 37.4089 224.9 36.5092 225.29 34.8894H228.981C228.531 38.3393 225.651 40.7087 221.781 40.7087C217.281 40.7087 214.341 37.5886 214.341 32.8787C214.341 28.289 217.371 25.0497 221.75 25.0496ZM238.215 25.0496C242.655 25.0497 245.475 28.0195 245.475 32.6394V33.7488L234.315 33.7791C234.585 36.3891 235.965 37.7087 238.395 37.7087C240.405 37.7087 241.725 36.9292 242.145 35.5193H245.535C244.905 38.759 242.205 40.7086 238.335 40.7087C233.925 40.7087 230.835 37.4989 230.835 32.9089C230.835 28.259 233.865 25.0496 238.215 25.0496ZM103.903 25.0789C108.493 25.0789 111.823 28.2588 111.823 32.8787C111.823 37.4987 108.493 40.6785 103.903 40.6785C99.313 40.6783 95.9829 37.4985 95.9829 32.8787C95.983 28.2589 99.3131 25.079 103.903 25.0789ZM193.11 25.0789C197.7 25.0789 201.031 28.2588 201.031 32.8787C201.031 37.4987 197.7 40.6785 193.11 40.6785C188.52 40.6782 185.19 37.4985 185.19 32.8787C185.19 28.259 188.52 25.0791 193.11 25.0789ZM274.702 40.3201H270.652L268.881 35.2498H260.692L258.921 40.3201H254.932L262.852 18.3894H266.782L274.702 40.3201ZM281.29 40.3201H277.451V18.3894H281.29V40.3201ZM139.541 25.2292C140.051 25.2292 140.562 25.2892 141.162 25.4392V28.8289H139.811C137.171 28.829 135.522 30.2392 135.522 33.1189V40.3191H131.862V25.5291H135.311L135.522 27.6892C136.152 26.2192 137.562 25.2292 139.541 25.2292ZM182.335 17.9998C182.905 17.9998 183.595 18.0292 184.225 18.1492V21.2693H182.935C181.075 21.2694 180.625 22.23 180.625 23.7V25.4998H184.165V28.5593H180.625V40.3191H176.996V28.5593H174.866V25.4998H176.996V23.7C176.996 19.68 179.125 17.9998 182.335 17.9998ZM211.612 25.2292C212.122 25.2292 212.632 25.2892 213.232 25.4392V28.8289H211.882C209.242 28.8289 207.592 30.239 207.592 33.1189V40.3191H203.932V25.5291H207.382L207.592 27.6892C208.222 26.2193 209.632 25.2293 211.612 25.2292ZM103.903 28.3494C101.383 28.3495 99.6431 30.1789 99.643 32.8787C99.643 35.5785 101.383 37.4088 103.903 37.4089C106.423 37.4089 108.164 35.5787 108.164 32.8787C108.163 30.1788 106.423 28.3494 103.903 28.3494ZM193.11 28.3494C190.59 28.3496 188.85 30.179 188.85 32.8787C188.85 35.5785 190.59 37.4087 193.11 37.4089C195.63 37.4089 197.371 35.5787 197.371 32.8787C197.37 30.1788 195.63 28.3494 193.11 28.3494ZM264.801 23.2498C264.711 23.6697 264.532 24.3296 264.322 24.9294L261.832 32.0095H267.772L265.251 24.9294C265.071 24.3595 264.861 23.6996 264.801 23.2498ZM166.176 28.0496C164.016 28.0497 162.696 29.2193 162.336 31.4392H169.777C169.777 29.3992 168.366 28.0496 166.176 28.0496ZM238.245 28.0496C236.085 28.0497 234.765 29.2193 234.405 31.4392H241.845C241.845 29.3992 240.435 28.0496 238.245 28.0496Z" fill="white"/>
<defs>
<clipPath id="clip0_68_4">
<rect width="35.3571" height="25.7143" fill="white" transform="translate(13.5667 17.1428)"/>
</clipPath>
</defs>
</svg>
