<svg width="190" height="22" viewBox="0 0 190 22" fill="none" xmlns="http://www.w3.org/2000/svg">
<path d="M7.55957 0.402344C11.7036 0.402344 14.3362 2.69853 14.4482 6.39453H10.8643C10.7803 4.63055 9.51987 3.59377 7.50391 3.59375C5.29192 3.59375 3.86426 4.65822 3.86426 6.36621C3.86426 7.82211 4.64771 8.63434 6.35547 9.02637L9.57617 9.72656C13.0759 10.4826 14.7842 12.2743 14.7842 15.3262C14.7842 19.1342 11.8156 21.5986 7.30762 21.5986C2.93985 21.5985 0.0841102 19.2743 0 15.6064H3.58398C3.6121 17.3423 5.01186 18.3779 7.30762 18.3779C9.68761 18.3779 11.2002 17.3418 11.2002 15.6338C11.2 14.2622 10.4999 13.4499 8.82031 13.0859L5.57227 12.3584C2.10039 11.6024 0.280387 9.61435 0.280273 6.47852C0.280273 2.89459 3.24774 0.402453 7.55957 0.402344ZM37.1221 14.8506C37.1221 17.4823 38.1579 18.5467 40.0615 18.5469C42.2175 18.5469 43.2539 17.2863 43.2539 14.6543V7.40234H46.6699V21.2344H43.5059L43.2539 19.3867C42.4139 20.7025 40.6221 21.5985 38.7744 21.5986C35.5825 21.5986 33.7062 19.4425 33.7061 16.0547V7.40234H37.1221V14.8506ZM66.8291 6.98242C70.6091 6.98242 73.1848 9.08206 73.5488 12.4141H70.1328C69.7408 10.8461 68.5927 10.0342 66.9688 10.0342C64.785 10.0344 63.3291 11.6862 63.3291 14.29C63.3291 16.894 64.6734 18.5176 66.8574 18.5176C68.5653 18.5175 69.7688 17.6779 70.1328 16.166H73.5771C73.1572 19.3859 70.4693 21.5976 66.8574 21.5977C62.6574 21.5977 59.9131 18.686 59.9131 14.29C59.9131 10.0061 62.7412 6.98246 66.8291 6.98242ZM82.1953 6.98242C86.3393 6.98242 88.9717 9.75441 88.9717 14.0664V15.1016L78.5557 15.1299C78.8076 17.5657 80.0955 18.7977 82.3633 18.7979C84.2393 18.7979 85.4713 18.0699 85.8633 16.7539H89.0273C88.4393 19.7779 85.9196 21.5977 82.3076 21.5977C78.1918 21.5976 75.3078 18.6022 75.3076 14.3184C75.3076 9.97848 78.1355 6.98259 82.1953 6.98242ZM134.094 6.98242C137.874 6.98242 140.45 9.08206 140.814 12.4141H137.398C137.006 10.8462 135.858 10.0343 134.234 10.0342C132.05 10.0342 130.594 11.686 130.594 14.29C130.594 16.894 131.938 18.5176 134.122 18.5176C135.83 18.5176 137.034 17.678 137.398 16.166H140.842C140.422 19.386 137.734 21.5976 134.122 21.5977C129.922 21.5977 127.178 18.686 127.178 14.29C127.178 10.0061 130.006 6.98255 134.094 6.98242ZM149.461 6.98242C153.605 6.98262 156.236 9.75456 156.236 14.0664V15.1016L145.82 15.1299C146.072 17.5659 147.361 18.7979 149.629 18.7979C151.505 18.7977 152.737 18.0698 153.129 16.7539H156.292C155.704 19.7779 153.184 21.5977 149.572 21.5977C145.457 21.5975 142.572 18.6021 142.572 14.3184C142.572 9.97836 145.401 6.98242 149.461 6.98242ZM24.1025 7.00977C28.3864 7.00992 31.4941 9.97815 31.4941 14.29C31.4941 18.6019 28.3863 21.5702 24.1025 21.5703C19.8186 21.5703 16.71 18.602 16.71 14.29C16.71 9.97804 19.8186 7.00977 24.1025 7.00977ZM107.363 7.00977C111.647 7.00977 114.756 9.97804 114.756 14.29C114.756 18.602 111.647 21.5703 107.363 21.5703C103.08 21.5701 99.9717 18.6019 99.9717 14.29C99.9717 9.97816 103.079 7.00993 107.363 7.00977ZM57.3652 7.15039C57.8412 7.15039 58.3179 7.2057 58.8779 7.3457V10.5098H57.6172C55.1536 10.5099 53.6134 11.8261 53.6133 14.5137V21.2344H50.1973V7.42969H53.418L53.6133 9.44629C54.2012 8.07439 55.5175 7.15053 57.3652 7.15039ZM97.3057 0.402344C97.8376 0.402347 98.4815 0.430045 99.0693 0.541992V3.4541H97.8652C96.1295 3.45422 95.71 4.35075 95.71 5.72266V7.40234H99.0137V10.2588H95.71V21.2344H92.3213V10.2588H90.334V7.40234H92.3213V5.72266C92.3213 1.97066 94.3097 0.402344 97.3057 0.402344ZM124.631 7.15039C125.107 7.15039 125.583 7.2058 126.143 7.3457V10.5098H124.883C122.419 10.5098 120.879 11.826 120.879 14.5137V21.2344H117.463V7.42969H120.683L120.879 9.44629C121.467 8.07433 122.783 7.15045 124.631 7.15039ZM183.514 21.2344H179.733L178.081 16.502H170.438L168.785 21.2344H165.062L172.453 0.766602H176.121L183.514 21.2344ZM189.664 21.2344H186.08V0.766602H189.664V21.2344ZM24.1025 10.0615C21.7505 10.0615 20.126 11.77 20.126 14.29C20.126 16.81 21.7506 18.5176 24.1025 18.5176C26.4543 18.5174 28.0781 16.8099 28.0781 14.29C28.0781 11.7702 26.4544 10.0617 24.1025 10.0615ZM107.363 10.0615C105.011 10.0617 103.388 11.7702 103.388 14.29C103.388 16.8099 105.012 18.5174 107.363 18.5176C109.715 18.5176 111.34 16.81 111.34 14.29C111.34 11.77 109.715 10.0615 107.363 10.0615ZM174.273 5.30273C174.189 5.6947 174.021 6.31031 173.825 6.87012L171.502 13.4785H177.046L174.693 6.87012C174.525 6.33831 174.329 5.72264 174.273 5.30273ZM82.2236 9.78223C80.2077 9.78224 78.9756 10.8743 78.6396 12.9463H85.584C85.584 11.0423 84.2676 9.78223 82.2236 9.78223ZM149.488 9.78223C147.472 9.7823 146.24 10.8744 145.904 12.9463H152.849C152.849 11.0423 151.532 9.78223 149.488 9.78223Z" fill="white"/>
</svg>
