<svg width="33" height="24" viewBox="0 0 33 24" fill="none" xmlns="http://www.w3.org/2000/svg">
<g clip-path="url(#clip0_193_12519)">
<path d="M16.5004 0C8.9365 0 2.80469 5.37274 2.80469 12.0001C2.80469 15.4149 4.43264 18.4964 7.04534 20.6815C7.01195 21.7235 6.65487 22.754 6.03008 23.5812C7.24067 23.532 8.42652 23.0408 9.33834 22.2301C11.4221 23.3515 13.8749 23.9996 16.5 23.9996C24.0639 23.9996 30.1957 18.6269 30.1957 11.9995C30.1957 5.37218 24.0643 0 16.5004 0ZM25.0126 17.8151C24.7621 18.0946 24.457 18.3177 24.1169 18.4701C23.7768 18.6224 23.4092 18.7007 23.0377 18.6999H9.96313C9.59157 18.7007 9.22394 18.6224 8.88384 18.4701C8.54374 18.3177 8.23867 18.0946 7.98821 17.8151C6.55901 16.2112 5.70731 14.1937 5.70731 12.0001C5.70731 9.80648 6.55883 7.78915 7.98803 6.18525C8.23848 5.90569 8.54357 5.68255 8.88371 5.53015C9.22384 5.37775 9.59152 5.29946 9.96313 5.30031H23.0375C23.4133 5.30067 23.7849 5.3814 24.1282 5.53726C24.4715 5.69312 24.7788 5.92065 25.0303 6.20511C26.449 7.8057 27.2935 9.8164 27.2935 12.0001C27.2935 14.1928 26.4418 16.2112 25.0126 17.8151Z" fill="#529E7E"/>
<path d="M2.15219 12.0003C2.15219 13.6463 2.50259 15.2425 3.19471 16.7506C1.34562 16.1315 0.000183105 14.9059 0.000183105 12.0003C0.000183105 9.24416 1.3458 7.86913 3.19543 7.25C2.50277 8.75886 2.15219 10.3558 2.15219 12.0003Z" fill="#529E7E"/>
<path d="M1.59768 3.68712V7.28463C1.1302 7.58826 0.719189 7.97375 0.383665 8.42326L0.375 8.43503V3.68712C0.377755 3.52387 0.443375 3.36825 0.557724 3.25379C0.672072 3.13933 0.825998 3.0752 0.98634 3.0752C1.14668 3.0752 1.30061 3.13933 1.41496 3.25379C1.5293 3.36825 1.59492 3.52387 1.59768 3.68712Z" fill="#529E7E"/>
<path d="M30.8472 12.0003C30.8472 13.6463 30.4968 15.2425 29.8047 16.7506C31.6538 16.1315 32.9999 14.9059 32.9999 12.0003C32.9999 9.24416 31.6543 7.86913 29.8047 7.25C30.4966 8.75886 30.8472 10.3558 30.8472 12.0003Z" fill="#529E7E"/>
<path d="M31.4062 3.68712V7.28463C31.8737 7.58826 32.2847 7.97375 32.6203 8.42326L32.6289 8.43503V3.68712C32.6262 3.52387 32.5606 3.36825 32.4462 3.25379C32.3319 3.13933 32.1779 3.0752 32.0176 3.0752C31.8572 3.0752 31.7033 3.13933 31.589 3.25379C31.4746 3.36825 31.409 3.52387 31.4062 3.68712Z" fill="#529E7E"/>
<path d="M13.5858 11.6278C13.1886 12.2515 12.6138 11.6278 11.4144 11.6278C10.215 11.6278 9.64116 12.2515 9.24346 11.6278C8.85841 11.0239 9.92079 9.53418 11.4144 9.53418C12.9081 9.53418 13.9706 11.0239 13.5858 11.6278Z" fill="#529E7E"/>
<path d="M23.75 11.6278C23.3528 12.2515 22.7779 11.6278 21.5787 11.6278C20.3795 11.6278 19.8054 12.2515 19.4075 11.6278C19.0225 11.0239 20.085 9.53418 21.5787 9.53418C23.0723 9.53418 24.1349 11.0239 23.75 11.6278Z" fill="#529E7E"/>
<path d="M16.4981 14.4659C15.6612 14.4659 15.1081 13.7899 15.0857 13.7613C15.0271 13.6862 14.9998 13.5907 15.0099 13.4953C15.0199 13.4 15.0664 13.3125 15.1393 13.2518C15.2122 13.1911 15.3057 13.1621 15.3994 13.171C15.4932 13.18 15.5797 13.2262 15.6403 13.2997C15.6424 13.3024 16.0053 13.7366 16.4981 13.7366C16.9909 13.7366 17.3538 13.3024 17.3574 13.298C17.3869 13.2599 17.4236 13.2282 17.4653 13.2047C17.507 13.1812 17.5529 13.1665 17.6002 13.1613C17.6476 13.1561 17.6955 13.1606 17.7412 13.1745C17.7868 13.1884 17.8293 13.2114 17.8661 13.2422C17.9029 13.273 17.9333 13.311 17.9555 13.354C17.9777 13.3969 17.9913 13.4439 17.9954 13.4922C17.9995 13.5406 17.9942 13.5893 17.9796 13.6355C17.965 13.6816 17.9415 13.7244 17.9105 13.7613C17.8881 13.7899 17.335 14.4659 16.4981 14.4659Z" fill="#529E7E"/>
</g>
</svg>
