<svg width="24" height="24" viewBox="0 0 24 24" fill="none" xmlns="http://www.w3.org/2000/svg">
<path d="M9.59859 1.65234C9.82601 2.64383 9.79785 3.67683 9.51677 4.65446C9.23568 5.63209 8.71088 6.5223 7.99159 7.24159C7.2723 7.96088 6.38209 8.48568 5.40446 8.76677C4.42683 9.04785 3.39383 9.07601 2.40234 8.84859C2.61598 9.77167 3.0448 10.6312 3.65381 11.357C4.26282 12.0828 5.03478 12.6544 5.90672 13.0252C6.45358 12.5462 7.11709 12.22 7.83031 12.0794C8.54353 11.9389 9.28121 11.9889 9.96891 12.2245C10.2485 11.186 10.7858 10.2348 11.531 9.45933C12.2762 8.68381 13.2051 8.10903 14.2317 7.78828H14.2458C14.2458 7.69453 14.2523 7.60078 14.2523 7.50703C14.2541 6.14842 13.7947 4.82944 12.9493 3.76589C12.1039 2.70233 10.9226 1.95718 9.59859 1.65234Z" fill="#529E7E"/>
<path d="M16.1258 6.74982C15.7377 6.74964 15.3501 6.781 14.9671 6.84357C14.8308 5.43578 14.2554 4.10647 13.3221 3.04369C12.3889 1.98091 11.1451 1.23846 9.76675 0.921386C9.64296 0.892947 9.51398 0.896411 9.39189 0.931454C9.26981 0.966498 9.15863 1.03197 9.06877 1.12174C8.97891 1.2115 8.91332 1.32262 8.87815 1.44467C8.84298 1.56671 8.83938 1.69569 8.86769 1.81951C9.04434 2.58907 9.04529 3.38855 8.87048 4.15853C8.69567 4.92851 8.34958 5.6492 7.85795 6.26703C7.36631 6.88487 6.74176 7.38397 6.03071 7.72724C5.31966 8.07051 4.54039 8.24913 3.75081 8.24982C3.35363 8.24988 2.9577 8.20522 2.5705 8.1167C2.44662 8.0882 2.31752 8.09165 2.19534 8.12674C2.07316 8.16182 1.9619 8.22739 1.87201 8.31727C1.78213 8.40716 1.71656 8.51842 1.68148 8.6406C1.64639 8.76278 1.64294 8.89188 1.67144 9.01576C1.87292 9.88457 2.24407 10.705 2.76357 11.43C3.28307 12.1549 3.94068 12.7701 4.69863 13.2401C4.16556 13.9663 3.84415 14.8261 3.77005 15.7239C3.69596 16.6216 3.87208 17.5224 4.27887 18.3262C4.68566 19.13 5.30721 19.8053 6.07454 20.2773C6.84187 20.7492 7.72496 20.9993 8.62581 20.9998H16.1258C18.0155 20.9998 19.8278 20.2492 21.1639 18.913C22.5001 17.5768 23.2508 15.7645 23.2508 13.8748C23.2508 11.9852 22.5001 10.1729 21.1639 8.83669C19.8278 7.50049 18.0155 6.74982 16.1258 6.74982ZM3.50425 9.74982C3.58581 9.74982 3.66831 9.74982 3.75081 9.74982C5.54041 9.74784 7.25615 9.03604 8.52159 7.7706C9.78703 6.50516 10.4988 4.78943 10.5008 2.99982C10.5008 2.91639 10.5008 2.83295 10.5008 2.74951C11.3645 3.15367 12.1008 3.78686 12.6297 4.58025C13.1586 5.37364 13.4599 6.29685 13.5008 7.24951C12.5848 7.61328 11.7538 8.16249 11.0601 8.86267C10.3663 9.56285 9.82484 10.3989 9.46956 11.3183C8.83547 11.2085 8.18592 11.2254 7.55839 11.368C6.93086 11.5106 6.33776 11.776 5.81331 12.1489C4.80461 11.6197 3.99448 10.778 3.50425 9.74982ZM16.1258 19.4998H8.62581C8.16421 19.499 7.70769 19.4034 7.28448 19.2191C6.86127 19.0348 6.48036 18.7657 6.16531 18.4283C5.85026 18.0909 5.60777 17.6925 5.45283 17.2577C5.29789 16.8229 5.23379 16.3609 5.2645 15.9003C5.29521 15.4397 5.42007 14.9903 5.63137 14.5799C5.84267 14.1695 6.13591 13.8068 6.49296 13.5143C6.85001 13.2217 7.26328 13.0055 7.70721 12.879C8.15115 12.7525 8.61631 12.7184 9.07394 12.7789C9.03925 13.0011 9.01488 13.2279 9.00175 13.4567C8.99609 13.5552 9.00988 13.6538 9.04234 13.747C9.0748 13.8402 9.12529 13.926 9.19093 13.9997C9.25657 14.0733 9.33607 14.1333 9.4249 14.1762C9.51372 14.2192 9.61013 14.2442 9.70863 14.2498C9.80712 14.2555 9.90576 14.2417 9.99892 14.2092C10.0921 14.1768 10.1779 14.1263 10.2516 14.0606C10.3252 13.995 10.3852 13.9155 10.4282 13.8267C10.4711 13.7379 10.4961 13.6414 10.5018 13.5429C10.5228 13.1689 10.5818 12.7979 10.678 12.4358C10.678 12.4208 10.6864 12.4058 10.6893 12.3908C10.9649 11.3777 11.5183 10.462 12.2869 9.74684C13.0556 9.03172 14.0088 8.54573 15.0391 8.34375C16.0693 8.14178 17.1355 8.23186 18.1173 8.60383C19.099 8.9758 19.9572 9.61484 20.595 10.4488C21.2327 11.2827 21.6246 12.2784 21.7264 13.3233C21.8282 14.3682 21.6358 15.4208 21.171 16.3621C20.7062 17.3035 19.9874 18.0961 19.0959 18.6506C18.2044 19.205 17.1757 19.4992 16.1258 19.4998Z" fill="#1E2D2A"/>
</svg>
