<svg width="24" height="24" viewBox="0 0 24 24" fill="none" xmlns="http://www.w3.org/2000/svg">
<path d="M13.1118 7.91324C12.1664 8.27217 11.3195 8.85017 10.6408 9.59983C9.96202 10.3495 9.4707 11.2494 9.20715 12.2257V12.2154C8.60913 12.0123 7.97249 11.9489 7.34614 12.0301C6.7198 12.1114 6.12041 12.3351 5.59403 12.6842C5.17304 12.1947 4.86232 11.6203 4.68296 11C4.50361 10.3798 4.45983 9.72822 4.55459 9.08956C4.64935 8.4509 4.88043 7.84011 5.23214 7.29866C5.58386 6.75721 6.04797 6.29779 6.59295 5.95159C7.13794 5.60539 7.75105 5.38052 8.39064 5.29225C9.03023 5.20398 9.68132 5.25438 10.2997 5.44002C10.9181 5.62566 11.4893 5.94219 11.9745 6.36813C12.4597 6.79407 12.8476 7.31944 13.1118 7.90855V7.91324Z" fill="#529E7E"/>
<path d="M15.3724 6.74922C14.7306 6.74883 14.0918 6.83492 13.473 7.00515C13.2288 6.60663 12.932 6.24274 12.5908 5.92328L13.4824 4.65109C13.5389 4.57039 13.579 4.47935 13.6003 4.38316C13.6216 4.28698 13.6238 4.18754 13.6067 4.09052C13.5896 3.99349 13.5535 3.90079 13.5006 3.8177C13.4476 3.73461 13.3789 3.66276 13.2982 3.60625C13.2175 3.54974 13.1264 3.50968 13.0302 3.48835C12.9341 3.46703 12.8346 3.46486 12.7376 3.48196C12.6406 3.49907 12.5479 3.53512 12.4648 3.58805C12.3817 3.64098 12.3098 3.70976 12.2533 3.79047L11.3618 5.06172C10.6286 4.69153 9.8187 4.49885 8.99738 4.49922C8.94301 4.49922 8.88863 4.49922 8.83426 4.49922L8.56332 2.97203C8.5491 2.87252 8.51502 2.77688 8.46311 2.6908C8.4112 2.60472 8.34251 2.52996 8.26113 2.47095C8.17976 2.41194 8.08735 2.36989 7.9894 2.34731C7.89145 2.32472 7.78995 2.32205 7.69095 2.33946C7.59195 2.35687 7.49746 2.39401 7.41309 2.44866C7.32873 2.50331 7.25621 2.57437 7.19985 2.6576C7.14349 2.74084 7.10443 2.83455 7.085 2.93318C7.06558 3.0318 7.06617 3.13333 7.08676 3.23172L7.35676 4.76359C6.52497 5.03871 5.77508 5.51726 5.1752 6.15578L3.89832 5.26234C3.81768 5.20444 3.72635 5.16313 3.62963 5.14079C3.5329 5.11846 3.43271 5.11555 3.33485 5.13223C3.23699 5.14892 3.14342 5.18486 3.05955 5.23798C2.97569 5.2911 2.90321 5.36034 2.84631 5.44169C2.78941 5.52304 2.74923 5.61487 2.72809 5.71186C2.70695 5.80886 2.70528 5.90908 2.72317 6.00673C2.74106 6.10437 2.77816 6.19749 2.83231 6.28069C2.88646 6.36389 2.95659 6.43551 3.03863 6.4914L4.30988 7.3839C3.93839 8.11692 3.74564 8.92744 3.74738 9.74922C3.74738 9.80265 3.74738 9.85703 3.74738 9.91047L2.2202 10.1805C2.03535 10.2128 1.86935 10.3134 1.75498 10.4621C1.64061 10.6109 1.58618 10.7972 1.60243 10.9841C1.61867 11.1711 1.70442 11.3452 1.84274 11.472C1.98106 11.5988 2.16191 11.6692 2.34957 11.6692C2.39325 11.6692 2.43684 11.6654 2.47988 11.658L4.00988 11.388C4.14431 11.7973 4.32884 12.1883 4.55926 12.5523C3.84187 13.2187 3.34176 14.0856 3.12404 15.0402C2.90632 15.9948 2.98109 16.9928 3.33861 17.9043C3.69612 18.8158 4.31982 19.5985 5.12848 20.1506C5.93714 20.7026 6.89328 20.9983 7.87238 20.9992H15.3724C17.2621 20.9992 19.0743 20.2485 20.4105 18.9124C21.7467 17.5762 22.4974 15.7639 22.4974 13.8742C22.4974 11.9845 21.7467 10.1723 20.4105 8.83608C19.0743 7.49988 17.2621 6.74922 15.3724 6.74922ZM5.24738 9.74922C5.24783 8.95502 5.50042 8.18147 5.96874 7.54004C6.43706 6.89862 7.09693 6.42244 7.85326 6.18013C8.60959 5.93782 9.42332 5.9419 10.1772 6.19176C10.9311 6.44163 11.5861 6.92439 12.048 7.57047C10.5181 8.37559 9.33174 9.70782 8.70863 11.3205C7.7227 11.1503 6.70829 11.2867 5.80238 11.7114C5.43969 11.1212 5.24759 10.442 5.24738 9.74922ZM15.3724 19.4992H7.87238C7.41078 19.4984 6.95426 19.4028 6.53105 19.2185C6.10783 19.0342 5.72693 18.7651 5.41188 18.4277C5.09683 18.0903 4.85434 17.6919 4.6994 17.2571C4.54446 16.8223 4.48036 16.3603 4.51107 15.8997C4.54178 15.4391 4.66664 14.9897 4.87794 14.5793C5.08924 14.1689 5.38248 13.8062 5.73953 13.5137C6.09658 13.2211 6.50985 13.0049 6.95378 12.8784C7.39772 12.7519 7.86288 12.7178 8.32051 12.7783C8.28582 13.0005 8.26145 13.2273 8.24832 13.4561C8.23688 13.655 8.30493 13.8503 8.4375 13.9991C8.57006 14.1478 8.75628 14.2378 8.9552 14.2492C9.15411 14.2607 9.34942 14.1926 9.49816 14.06C9.6469 13.9275 9.73688 13.7413 9.74832 13.5423C9.76936 13.1683 9.82842 12.7973 9.92457 12.4352C9.92457 12.4202 9.93301 12.4052 9.93582 12.3902C10.2115 11.3771 10.7649 10.4614 11.5335 9.74623C12.3021 9.03111 13.2554 8.54512 14.2856 8.34315C15.3159 8.14117 16.3821 8.23126 17.3638 8.60323C18.3456 8.97519 19.2038 9.61423 19.8415 10.4482C20.4793 11.2821 20.8712 12.2778 20.973 13.3227C21.0748 14.3676 20.8824 15.4202 20.4176 16.3615C19.9528 17.3029 19.234 18.0955 18.3425 18.65C17.451 19.2044 16.4222 19.4986 15.3724 19.4992Z" fill="#529E7E"/>
</svg>
