<svg width="280" height="178" viewBox="0 0 280 178" fill="none" xmlns="http://www.w3.org/2000/svg">
<path d="M9.93586 77.4879C9.50967 77.4879 9.08393 77.3253 8.75866 77L0.9879 69.2292C0.337367 68.5794 0.337367 67.5247 0.9879 66.8746C1.63843 66.2241 2.69199 66.2241 3.34253 66.8746L11.1133 74.6454C11.7638 75.2952 11.7638 76.3499 11.1133 77C10.788 77.3253 10.3616 77.4879 9.93586 77.4879Z" fill="#529E7E"/>
<path d="M2.1651 77.4879C1.73891 77.4879 1.31317 77.3253 0.9879 77C0.337367 76.3501 0.337367 75.2955 0.9879 74.6454L8.75865 66.8746C9.40918 66.2241 10.4627 66.2241 11.1133 66.8746C11.7638 67.5245 11.7638 68.5792 11.1133 69.2292L3.34251 77C3.01703 77.3253 2.59062 77.4879 2.1651 77.4879Z" fill="#529E7E"/>
<path d="M232.422 151.742L230.204 156.83L243.855 162.781L246.073 157.693L232.422 151.742Z" fill="#529E7E"/>
<path d="M236.748 15.3642L223.908 22.9082L226.72 27.6938L239.559 20.1498L236.748 15.3642Z" fill="#529E7E"/>
<path d="M22.7918 28.2714L21.0723 33.5488L35.2317 38.1624L36.9512 32.885L22.7918 28.2714Z" fill="#529E7E"/>
<path d="M39.493 116.748L27.2939 125.287L30.4766 129.834L42.6757 121.295L39.493 116.748Z" fill="#529E7E"/>
<path d="M263.07 97.217L262.561 102.744L277.066 104.081L277.575 98.5541L263.07 97.217Z" fill="#529E7E"/>
<path d="M277.835 57.4684C277.409 57.4684 276.983 57.3057 276.658 56.9805L268.887 49.2097C268.237 48.5598 268.237 47.5052 268.887 46.8551C269.538 46.2046 270.591 46.2046 271.242 46.8551L279.013 54.6259C279.663 55.2757 279.663 56.3304 279.013 56.9805C278.687 57.3057 278.261 57.4684 277.835 57.4684Z" fill="#529E7E"/>
<path d="M270.064 57.4684C269.638 57.4684 269.213 57.3057 268.887 56.9805C268.237 56.3306 268.237 55.2759 268.887 54.6259L276.658 46.8551C277.309 46.2046 278.362 46.2046 279.013 46.8551C279.663 47.505 279.663 48.5596 279.013 49.2097L271.242 56.9805C270.916 57.3057 270.49 57.4684 270.064 57.4684Z" fill="#529E7E"/>
<path opacity="0.4" d="M141.041 177.547C189.944 177.547 229.588 137.903 229.588 89.0002C229.588 40.097 189.944 0.453125 141.041 0.453125C92.138 0.453125 52.4941 40.097 52.4941 89.0002C52.4941 137.903 92.138 177.547 141.041 177.547Z" fill="#529E7E"/>
<path d="M141.041 150.925C175.241 150.925 202.966 123.2 202.966 88.9997C202.966 54.7992 175.241 27.0742 141.041 27.0742C106.84 27.0742 79.1152 54.7992 79.1152 88.9997C79.1152 123.2 106.84 150.925 141.041 150.925Z" fill="#529E7E"/>
<path d="M128.379 115.566C127.43 115.566 126.484 115.194 125.777 114.457L106.066 93.9442C104.685 92.5077 104.731 90.2237 106.167 88.8433C107.605 87.4629 109.887 87.5079 111.268 88.9454L128.564 106.945L173.78 66.3814C175.263 65.0509 177.544 65.1741 178.876 66.6579C180.206 68.141 180.083 70.4223 178.599 71.7528L130.787 114.644C130.099 115.261 129.237 115.566 128.378 115.566L128.379 115.566Z" fill="white"/>
</svg>
