<svg width="32" height="32" viewBox="0 0 32 32" fill="none" xmlns="http://www.w3.org/2000/svg">
<path d="M16 10V28C16 28 3 21 3 12.75C3 10.9598 3.71116 9.2429 4.97703 7.97703C6.2429 6.71116 7.95979 6 9.75 6C12.5737 6 14.9925 7.53875 16 10Z" fill="#529E7E"/>
<path d="M22.25 5C19.6688 5 17.4088 6.11 16 7.98625C14.5912 6.11 12.3313 5 9.75 5C7.69528 5.00232 5.72539 5.81958 4.27248 7.27248C2.81958 8.72539 2.00232 10.6953 2 12.75C2 21.5 14.9738 28.5837 15.5262 28.875C15.6719 28.9533 15.8346 28.9943 16 28.9943C16.1654 28.9943 16.3281 28.9533 16.4737 28.875C17.0262 28.5837 30 21.5 30 12.75C29.9977 10.6953 29.1804 8.72539 27.7275 7.27248C26.2746 5.81958 24.3047 5.00232 22.25 5ZM4 12.75C4.00198 11.2256 4.60842 9.76423 5.68633 8.68633C6.76423 7.60842 8.22561 7.00198 9.75 7C12.1138 7 14.1075 8.22375 15 10.2063V26.25C11.6987 24.18 4 18.7225 4 12.75ZM17 26.25V10.2063C17.8925 8.22375 19.8862 7 22.25 7C23.7744 7.00198 25.2358 7.60842 26.3137 8.68633C27.3916 9.76423 27.998 11.2256 28 12.75C28 18.7137 20.3025 24.1763 17 26.25Z" fill="white"/>
</svg>
