<svg width="261" height="240" viewBox="0 0 261 240" fill="none" xmlns="http://www.w3.org/2000/svg">
<path fill-rule="evenodd" clip-rule="evenodd" d="M131.394 164.282C131.394 163.61 130.85 163.066 130.178 163.066C129.506 163.066 128.962 163.61 128.962 164.282C128.962 164.954 129.506 165.498 130.178 165.498C130.85 165.498 131.394 164.954 131.394 164.282ZM133.22 164.282C133.22 162.603 131.857 161.24 130.178 161.24C128.499 161.24 127.137 162.603 127.137 164.282C127.137 165.962 128.499 167.322 130.178 167.322C131.857 167.322 133.22 165.962 133.22 164.282Z" fill="white"/>
<path fill-rule="evenodd" clip-rule="evenodd" d="M132.612 164.281C132.612 162.936 131.522 161.848 130.179 161.848C128.834 161.848 127.746 162.936 127.746 164.281C127.746 165.625 128.834 166.714 130.179 166.714C131.522 166.714 132.612 165.625 132.612 164.281ZM134.436 164.281C134.436 161.929 132.53 160.022 130.179 160.022C127.827 160.022 125.92 161.929 125.92 164.281C125.92 166.632 127.827 168.538 130.179 168.538C132.53 168.538 134.436 166.632 134.436 164.281Z" fill="white"/>
<path fill-rule="evenodd" clip-rule="evenodd" d="M133.83 164.282C133.83 162.265 132.195 160.632 130.18 160.632C128.163 160.632 126.531 162.265 126.531 164.282C126.531 166.297 128.163 167.93 130.18 167.93C132.195 167.93 133.83 166.297 133.83 164.282ZM135.654 164.282C135.654 161.258 133.203 158.807 130.18 158.807C127.156 158.807 124.705 161.258 124.705 164.282C124.705 167.305 127.156 169.755 130.18 169.755C133.203 169.755 135.654 167.305 135.654 164.282Z" fill="white"/>
<path d="M114.801 104.423H194.613C197.935 104.423 200.652 107.141 200.652 110.463V232.264C200.652 235.588 197.935 238.305 194.613 238.305H114.801C111.479 238.305 108.762 235.588 108.762 232.264V110.463C108.762 107.141 111.479 104.423 114.801 104.423Z" stroke="#1E2D2A" stroke-width="2.01709" stroke-miterlimit="22.9256" stroke-linecap="round" stroke-linejoin="round"/>
<path fill-rule="evenodd" clip-rule="evenodd" d="M114.801 104.424H194.613C197.935 104.424 200.654 107.141 200.654 110.464V232.266C200.654 235.588 197.935 238.305 194.613 238.305H114.801C111.479 238.305 108.762 235.588 108.762 232.266V110.464C108.762 107.141 111.479 104.424 114.801 104.424Z" fill="white"/>
<path fill-rule="evenodd" clip-rule="evenodd" d="M118.01 117.749H183.696C184.669 117.749 185.464 118.546 185.464 119.519C185.464 120.492 184.669 121.289 183.696 121.289H118.01C117.036 121.289 116.24 120.492 116.24 119.519C116.24 118.546 117.036 117.749 118.01 117.749Z" fill="#DBDBDB"/>
<path fill-rule="evenodd" clip-rule="evenodd" d="M164.582 129.193H183.695C184.668 129.193 185.463 129.988 185.463 130.962C185.463 131.936 184.668 132.731 183.695 132.731H164.582C163.609 132.731 162.812 131.936 162.812 130.962C162.812 129.988 163.609 129.193 164.582 129.193Z" fill="#DBDBDB"/>
<path fill-rule="evenodd" clip-rule="evenodd" d="M118.01 223.324H183.696C184.669 223.324 185.464 224.119 185.464 225.092C185.464 226.066 184.669 226.862 183.696 226.862H118.01C117.036 226.862 116.24 226.066 116.24 225.092C116.24 224.119 117.036 223.324 118.01 223.324Z" fill="#DBDBDB"/>
<path fill-rule="evenodd" clip-rule="evenodd" d="M118.01 200.434H183.696C184.669 200.434 185.464 201.23 185.464 202.203C185.464 203.176 184.669 203.973 183.696 203.973H118.01C117.036 203.973 116.24 203.176 116.24 202.203C116.24 201.23 117.036 200.434 118.01 200.434Z" fill="#DBDBDB"/>
<path fill-rule="evenodd" clip-rule="evenodd" d="M164.582 211.879H183.695C184.668 211.879 185.463 212.676 185.463 213.649C185.463 214.622 184.668 215.419 183.695 215.419H164.582C163.609 215.419 162.812 214.622 162.812 213.649C162.812 212.676 163.609 211.879 164.582 211.879Z" fill="#DBDBDB"/>
<path fill-rule="evenodd" clip-rule="evenodd" d="M65.0343 61.4876H154.712C160.029 61.4876 164.377 65.8358 164.377 71.1521V213.681C164.377 218.997 160.029 223.346 154.712 223.346H65.0343C59.7193 223.346 55.3711 218.997 55.3711 213.681V71.1521C55.3711 65.8358 59.7193 61.4876 65.0343 61.4876Z" fill="#DBDBDB"/>
<path d="M74.5558 55.4466H164.234C169.55 55.4466 173.898 59.7948 173.898 65.1098V207.64C173.898 212.955 169.55 217.305 164.234 217.305H74.5558C69.2421 217.305 64.8926 212.955 64.8926 207.64V65.1098C64.8926 59.7948 69.2421 55.4466 74.5558 55.4466Z" stroke="#1E2D2A" stroke-width="2.41556" stroke-miterlimit="22.9256" stroke-linecap="round" stroke-linejoin="round"/>
<path fill-rule="evenodd" clip-rule="evenodd" d="M74.5558 55.4466H164.234C169.55 55.4466 173.897 59.7961 173.897 65.1111V207.641C173.897 212.956 169.55 217.305 164.234 217.305H74.5558C69.2408 217.305 64.8926 212.956 64.8926 207.641V65.1111C64.8926 59.7961 69.2408 55.4466 74.5558 55.4466Z" fill="white"/>
<path fill-rule="evenodd" clip-rule="evenodd" d="M82.4678 72.4361H156.32C157.294 72.4361 158.09 73.2328 158.09 74.2047C158.09 75.1792 157.294 75.9746 156.32 75.9746H82.4678C81.4959 75.9746 80.6992 75.1792 80.6992 74.2047C80.6992 73.2328 81.4959 72.4361 82.4678 72.4361Z" fill="#DBDBDB"/>
<path fill-rule="evenodd" clip-rule="evenodd" d="M82.4678 84.1714H156.32C157.294 84.1714 158.09 84.9682 158.09 85.9414C158.09 86.9146 157.294 87.71 156.32 87.71H82.4678C81.4959 87.71 80.6992 86.9146 80.6992 85.9414C80.6992 84.9682 81.4959 84.1714 82.4678 84.1714Z" fill="#DBDBDB"/>
<path fill-rule="evenodd" clip-rule="evenodd" d="M82.4678 197.104H156.32C157.294 197.104 158.09 197.899 158.09 198.873C158.09 199.846 157.294 200.643 156.32 200.643H82.4678C81.4959 200.643 80.6992 199.846 80.6992 198.873C80.6992 197.899 81.4959 197.104 82.4678 197.104Z" fill="#DBDBDB"/>
<path fill-rule="evenodd" clip-rule="evenodd" d="M82.4678 174.215H156.32C157.294 174.215 158.09 175.011 158.09 175.984C158.09 176.957 157.294 177.754 156.32 177.754H82.4678C81.4959 177.754 80.6992 176.957 80.6992 175.984C80.6992 175.011 81.4959 174.215 82.4678 174.215Z" fill="#DBDBDB"/>
<path fill-rule="evenodd" clip-rule="evenodd" d="M82.4691 185.656H123.446C124.42 185.656 125.216 186.453 125.216 187.426C125.216 188.4 124.42 189.196 123.446 189.196H82.4691C81.4946 189.196 80.6992 188.4 80.6992 187.426C80.6992 186.453 81.4946 185.656 82.4691 185.656Z" fill="#DBDBDB"/>
<path fill-rule="evenodd" clip-rule="evenodd" d="M134.538 185.656H156.32C157.293 185.656 158.091 186.453 158.091 187.426C158.091 188.4 157.293 189.196 156.32 189.196H134.538C133.563 189.196 132.768 188.4 132.768 187.426C132.768 186.453 133.563 185.656 134.538 185.656Z" fill="#DBDBDB"/>
<path fill-rule="evenodd" clip-rule="evenodd" d="M156.32 162.772H115.343C114.37 162.772 113.574 163.567 113.574 164.541C113.574 165.515 114.37 166.311 115.343 166.311H156.32C157.293 166.311 158.091 165.515 158.091 164.541C158.091 163.567 157.293 162.772 156.32 162.772Z" fill="#DBDBDB"/>
<path fill-rule="evenodd" clip-rule="evenodd" d="M104.253 162.772H82.4691C81.4946 162.772 80.6992 163.567 80.6992 164.541C80.6992 165.515 81.4946 166.311 82.4691 166.311H104.253C105.226 166.311 106.022 165.515 106.022 164.541C106.022 163.567 105.226 162.772 104.253 162.772Z" fill="#DBDBDB"/>
<path d="M84.324 96.3797H154.467C155.873 96.3797 157.155 96.9571 158.087 97.8875L158.091 97.8901L158.094 97.8927C159.023 98.8257 159.601 100.108 159.601 101.514V148.971C159.601 150.378 159.023 151.66 158.094 152.591L158.091 152.594L158.087 152.598C157.155 153.528 155.873 154.104 154.467 154.104H84.324C82.9174 154.104 81.6354 153.528 80.7024 152.598L80.6998 152.594L80.6973 152.591C79.7669 151.66 79.1895 150.378 79.1895 148.971V101.514C79.1895 100.108 79.7669 98.8257 80.6973 97.8927L80.6998 97.8901L80.7024 97.8875C81.6354 96.9571 82.9174 96.3797 84.324 96.3797ZM154.467 99.4005H84.324C83.7388 99.4005 83.2107 99.6366 82.8318 100.016L82.8253 100.022C82.4464 100.401 82.2102 100.929 82.2102 101.514V148.971C82.2102 149.555 82.4464 150.083 82.8253 150.463L82.8318 150.469C83.2107 150.849 83.7388 151.085 84.324 151.085H154.467C155.051 151.085 155.579 150.849 155.958 150.469L155.964 150.463C156.344 150.083 156.581 149.555 156.581 148.971V101.514C156.581 100.929 156.344 100.401 155.964 100.022L155.958 100.016C155.579 99.6366 155.051 99.4005 154.467 99.4005Z" fill="#DBDBDB"/>
<path fill-rule="evenodd" clip-rule="evenodd" d="M111.576 109.632C113.664 109.632 115.356 111.325 115.356 113.413C115.356 115.501 113.664 117.194 111.576 117.194C109.488 117.194 107.795 115.501 107.795 113.413C107.795 111.325 109.488 109.632 111.576 109.632Z" fill="#1E2D2A"/>
<path fill-rule="evenodd" clip-rule="evenodd" d="M135.168 113.88C137.254 113.88 138.948 115.572 138.948 117.66C138.948 119.749 137.254 121.441 135.168 121.441C133.079 121.441 131.387 119.749 131.387 117.66C131.387 115.572 133.079 113.88 135.168 113.88Z" fill="#1E2D2A"/>
<path d="M104.124 135.24C103.189 135.635 102.107 135.201 101.71 134.266C101.312 133.332 101.748 132.251 102.682 131.853C109.477 128.946 116.338 128.753 122.221 130.479C128.636 132.363 133.901 136.542 136.689 142.001C137.15 142.903 136.792 144.01 135.889 144.472C134.987 144.933 133.88 144.574 133.418 143.671C131.093 139.117 126.641 135.609 121.183 134.008C116.073 132.508 110.086 132.688 104.124 135.24Z" fill="#1E2D2A"/>
<path d="M169.195 161.408L192.003 184.894C193.408 186.342 194.095 188.233 194.068 190.11C194.04 191.987 193.301 193.857 191.858 195.261L191.859 195.262L191.81 195.306C190.368 196.685 188.496 197.359 186.635 197.33C184.756 197.304 182.884 196.563 181.478 195.115L158.678 171.635L158.677 171.638V171.637L158.635 171.591C157.253 170.149 156.581 168.274 156.607 166.412C156.632 164.742 157.221 163.08 158.365 161.745L150.965 154.124C143.4 161.222 133.697 164.685 124.048 164.545C114.193 164.4 104.391 160.497 96.9828 152.871L96.9815 152.873L96.9802 152.871L96.9789 152.869L96.9309 152.817C89.5488 145.193 85.948 135.299 86.092 125.46C86.2361 115.604 90.1392 105.803 97.7652 98.3938L97.7639 98.3925L97.7652 98.3912L97.8171 98.3445C103.078 93.2514 109.556 89.8686 116.44 88.375C123.345 86.8763 130.663 87.2747 137.577 89.7453C137.926 89.8686 138.106 90.2539 137.984 90.6017C137.858 90.9507 137.474 91.1337 137.125 91.0092C130.452 88.6242 123.388 88.2401 116.724 89.6856C110.074 91.1298 103.82 94.3959 98.741 99.3138L98.7151 99.341L98.7138 99.3436L98.7125 99.341L98.7086 99.3462L98.706 99.3475C91.3408 106.502 87.57 115.963 87.4312 125.476C87.291 134.978 90.7725 144.534 97.9028 151.895L97.9287 151.92L97.93 151.921L97.9313 151.922L97.93 151.925L97.9339 151.927L97.9365 151.93C105.09 159.296 114.552 163.067 124.064 163.206C133.565 163.345 143.121 159.863 150.481 152.733L150.507 152.708L150.509 152.706L150.51 152.708L150.515 152.703L150.516 152.702L150.529 152.689L150.541 152.679C154.307 149.014 157.211 144.639 159.125 139.868C161.041 135.086 161.968 129.903 161.773 124.642C161.76 124.272 162.049 123.962 162.418 123.949C162.788 123.936 163.098 124.225 163.111 124.595C163.312 130.045 162.354 135.414 160.369 140.366C158.463 145.118 155.609 149.489 151.927 153.191L159.327 160.812C160.696 159.706 162.374 159.168 164.04 159.193C165.92 159.219 167.79 159.961 169.195 161.408ZM142.62 93.4875C142.297 93.3098 142.179 92.9023 142.358 92.5805C142.535 92.2574 142.942 92.1406 143.265 92.3184C144.933 93.241 146.521 94.2778 148.013 95.4197C149.512 96.5667 150.929 97.8254 152.25 99.1853C154.953 101.969 157.204 105.126 158.942 108.537C160.68 111.951 161.911 115.627 162.574 119.45C162.635 119.816 162.388 120.162 162.025 120.224C161.66 120.287 161.312 120.04 161.25 119.676C160.612 115.993 159.424 112.444 157.744 109.147C156.064 105.847 153.893 102.8 151.291 100.12C150.018 98.809 148.649 97.5944 147.2 96.4863C145.741 95.3704 144.21 94.3673 142.62 93.4875ZM191.04 185.83L168.234 162.343C167.085 161.161 165.559 160.555 164.024 160.533C162.498 160.511 160.966 161.062 159.788 162.191L159.767 162.215H159.766L159.76 162.219V162.217L159.758 162.22C158.577 163.367 157.971 164.894 157.948 166.429C157.927 167.951 158.476 169.482 159.602 170.659L159.627 170.684L159.628 170.685L159.627 170.687L159.632 170.692L159.633 170.693L182.44 194.181C183.588 195.362 185.117 195.968 186.65 195.99C188.173 196.013 189.705 195.463 190.882 194.337L190.907 194.311L190.908 194.309L190.909 194.311L190.916 194.304C192.098 193.157 192.705 191.629 192.726 190.093C192.749 188.557 192.189 187.01 191.04 185.83Z" fill="#1E2D2A"/>
<path d="M191.046 185.832L168.24 162.346C167.091 161.164 165.564 160.558 164.03 160.536C162.504 160.514 160.971 161.065 159.792 162.194L159.773 162.217H159.772L159.766 162.221V162.22L159.765 162.223C158.583 163.37 157.977 164.897 157.954 166.432C157.933 167.954 158.482 169.485 159.608 170.662L159.633 170.687L159.634 170.688L159.633 170.689L159.638 170.695L159.639 170.696L182.446 194.184C183.594 195.364 185.123 195.97 186.656 195.992C188.179 196.016 189.711 195.466 190.888 194.339L190.914 194.313V194.312L190.915 194.313L190.922 194.307C192.104 193.16 192.71 191.631 192.732 190.096C192.755 188.56 192.195 187.013 191.046 185.832Z" fill="white"/>
<path d="M28.5985 197.443C34.8503 195.489 37.0887 205.283 31.1068 206.855C26.1681 208.153 23.4094 203.091 25.5206 199.569C26.3537 198.178 27.1426 197.897 28.5985 197.443ZM23.0176 201.154C23.0176 212.276 36.5346 210.608 36.5346 201.973C36.5346 192.926 23.0176 193.851 23.0176 201.154Z" fill="#EEF1F0"/>
<path d="M95.5267 1.44547L100.085 6.31275L95.3438 10.3055L97.0098 12.1584L101.531 7.81924L106.089 12.6865L107.597 11.241L103.038 6.37374L107.78 2.38103L106.114 0.528066L101.592 4.86722L97.0345 -6.48499e-05L95.5267 1.44547Z" fill="#EEF1F0"/>
<path d="M43.0485 52.2966L50.1957 45.5465C51.7139 48.1508 51.8864 52.3083 53.4046 54.9126C52.1486 55.0696 49.7039 54.0808 48.2233 53.7174C46.4132 53.2737 44.7743 52.8831 43.0485 52.2966ZM40.1367 52.7923C41.9339 54.4052 52.7493 55.8481 55.3575 57.5752C55.6378 56.0453 51.5309 43.5651 50.5772 42.37C48.998 43.8609 47.8587 45.5102 45.7955 47.4501C43.9049 49.2265 42.0234 51.012 40.1367 52.7923Z" fill="#EEF1F0"/>
<path d="M5.39406 122.966H0.177734V124.596H5.39406V129.812H7.02515V124.596H11.9145V122.966H7.02515V117.75H5.39406V122.966Z" fill="#EEF1F0"/>
<path d="M198.502 57.1202L203.65 52.2595C204.744 54.1345 204.868 57.128 205.961 59.003C205.055 59.1159 203.296 58.4049 202.229 58.1428C200.925 57.8236 199.744 57.542 198.502 57.1202ZM196.404 57.4771C197.699 58.6384 205.489 59.6765 207.366 60.9209C207.57 59.8192 204.61 50.8321 203.924 49.9718C202.787 51.0449 201.967 52.2335 200.481 53.6297C199.12 54.9091 197.763 56.1951 196.404 57.4771Z" fill="#EEF1F0"/>
<path d="M250.426 115.622L254.053 119.496L250.279 122.674L251.605 124.149L255.205 120.696L258.83 124.569L260.031 123.418L256.403 119.545L260.177 116.367L258.851 114.893L255.253 118.345L251.625 114.471L250.426 115.622Z" fill="#EEF1F0"/>
<path d="M210.177 186.565L213.034 189.615L210.062 192.117L211.106 193.277L213.94 190.56L216.796 193.609L217.739 192.702L214.883 189.653L217.855 187.153L216.811 185.99L213.977 188.708L211.121 185.659L210.177 186.565Z" fill="#EEF1F0"/>
</svg>
