<svg width="16" height="16" viewBox="0 0 16 16" fill="none" xmlns="http://www.w3.org/2000/svg">
<g clip-path="url(#clip0_1483_10918)">
<path d="M8 16C12.4183 16 16 12.4183 16 8C16 3.58172 12.4183 0 8 0C3.58172 0 0 3.58172 0 8C0 12.4183 3.58172 16 8 16Z" fill="#FC4581"/>
<path d="M12.2681 1.23063H3.73438C3.88667 1.13438 4.04229 1.04323 4.20125 0.957188C5.3271 0.347894 6.58344 0.0195224 7.86344 0H8.13906C8.29219 0.0021875 8.44406 0.009375 8.595 0.0203125C9.90033 0.115252 11.162 0.530991 12.2681 1.23063Z" fill="#DB1B1B"/>
<path d="M13.7741 2.46109H2.22656C2.23406 2.45297 2.24188 2.44516 2.24969 2.43703C2.39552 2.28703 2.54604 2.14297 2.70125 2.00484C2.85063 1.87297 3.0049 1.74641 3.16406 1.62516C3.34781 1.48578 3.53906 1.35359 3.73344 1.23047H12.2672C12.8177 1.57785 13.3237 1.99111 13.7741 2.46109Z" fill="white"/>
<path d="M14.7434 3.69125H1.25781C1.37188 3.51344 1.49281 3.33969 1.62031 3.17188C1.80852 2.92332 2.01105 2.68594 2.22687 2.46094H13.7744C14.1366 2.83861 14.4611 3.25066 14.7434 3.69125Z" fill="#DB1B1B"/>
<path d="M15.387 4.92203H0.613281C0.652031 4.82828 0.692656 4.73641 0.735469 4.64453C0.871441 4.35037 1.02516 4.06474 1.19578 3.78922C1.21609 3.75797 1.23672 3.72422 1.25828 3.69141H14.743C14.993 4.08212 15.2085 4.49388 15.387 4.92203Z" fill="white"/>
<path d="M15.7861 6.15578H0.214844C0.259427 5.96516 0.31151 5.77766 0.371094 5.59328C0.442552 5.36578 0.523802 5.14328 0.614844 4.92578H15.3873C15.5536 5.32421 15.687 5.73559 15.7861 6.15578Z" fill="#DB1B1B"/>
<path d="M15.9766 7.38297H0.0234375C0.0547558 6.96839 0.118598 6.55692 0.214375 6.15234H15.7856C15.8814 6.55692 15.9452 6.96839 15.9766 7.38297Z" fill="white"/>
<path d="M16 7.99813C16 8.205 15.9922 8.4101 15.9766 8.61344H0.0234375C0.0078125 8.41031 0 8.20521 0 7.99813V7.59969C3.11555e-05 7.61007 0.00295271 7.62024 0.0084375 7.62906C0.0084375 7.6075 0.0103125 7.58594 0.0115625 7.56469C0.0146875 7.50375 0.01875 7.44344 0.0234375 7.38281H15.9766C15.9922 7.58594 16 7.79104 16 7.99813Z" fill="#DB1B1B"/>
<path d="M15.9766 8.61719C15.9453 9.03177 15.8814 9.44324 15.7856 9.84781H0.214375C0.118571 9.44324 0.0547288 9.03177 0.0234375 8.61719H15.9766Z" fill="white"/>
<path d="M15.7861 9.84766C15.6872 10.268 15.5538 10.6795 15.3873 11.078H0.613594C0.447137 10.6795 0.31377 10.268 0.214844 9.84766H15.7861Z" fill="#DB1B1B"/>
<path d="M15.387 11.0781C15.2087 11.5064 14.9932 11.9181 14.743 12.3088H1.25734C1.00711 11.9181 0.791596 11.5064 0.613281 11.0781H15.387Z" fill="white"/>
<path d="M14.7431 12.3086C14.461 12.7493 14.1365 13.1615 13.7744 13.5392H2.22656C1.86439 13.1615 1.53994 12.7493 1.25781 12.3086H14.7431Z" fill="#DB1B1B"/>
<path d="M13.7741 13.5391C13.3235 14.0088 12.8175 14.422 12.2672 14.7697H3.73344C3.18316 14.422 2.67716 14.0088 2.22656 13.5391H13.7741Z" fill="white"/>
<path d="M12.2655 14.7695C11.0341 15.5491 9.61206 15.9753 8.15484 16.0014H7.84234C6.38485 15.976 4.9624 15.5504 3.73047 14.7711L12.2655 14.7695Z" fill="#DB1B1B"/>
<path d="M8.59375 0.0203125V8.61406H0.0234375C0.0078125 8.41073 0 8.20552 0 7.99844V7.6C3.11555e-05 7.61038 0.00295271 7.62056 0.0084375 7.62937C0.0084375 7.60781 0.0103125 7.58625 0.0115625 7.565C0.0146875 7.50406 0.01875 7.44375 0.0234375 7.38312C0.0547558 6.96855 0.118598 6.55707 0.214375 6.1525C0.258958 5.96187 0.311042 5.77437 0.370625 5.59C0.442083 5.3625 0.523333 5.14 0.614375 4.9225C0.653125 4.82875 0.69375 4.73688 0.736562 4.645C0.872535 4.35084 1.02626 4.06521 1.19687 3.78969C1.21719 3.75844 1.23781 3.72469 1.25937 3.69187C1.37344 3.51406 1.49437 3.34031 1.62188 3.1725C1.80937 2.92389 2.01117 2.68641 2.22625 2.46125C2.23375 2.45312 2.24156 2.44531 2.24938 2.43719C2.39521 2.28719 2.54573 2.14312 2.70094 2.005C2.85031 1.87312 3.00458 1.74656 3.16375 1.62531C3.3475 1.48594 3.53875 1.35375 3.73312 1.23063C3.88542 1.13438 4.04104 1.04323 4.2 0.957188C5.32585 0.347894 6.58219 0.0195224 7.86219 0H8.13781C8.29094 0.0021875 8.44281 0.009375 8.59375 0.0203125Z" fill="#3E436D"/>
<path d="M7.66772 0.513372L7.77709 0.849935C7.78079 0.861367 7.78801 0.871335 7.79772 0.878409C7.80744 0.885483 7.81914 0.889299 7.83115 0.88931H8.18647C8.19827 0.889772 8.20964 0.8939 8.219 0.901121C8.22835 0.908341 8.23522 0.918296 8.23866 0.929601C8.2421 0.940907 8.24192 0.953002 8.23817 0.964206C8.23442 0.975411 8.22727 0.985168 8.21772 0.992122L7.93115 1.20025C7.92159 1.20718 7.91445 1.21695 7.91075 1.22817C7.90704 1.23938 7.90697 1.25148 7.91053 1.26275L8.0199 1.59962C8.02327 1.61097 8.023 1.62308 8.01915 1.63428C8.0153 1.64547 8.00806 1.65518 7.99843 1.66206C7.9888 1.66894 7.97726 1.67264 7.96543 1.67265C7.95359 1.67266 7.94205 1.66898 7.9324 1.66212L7.64615 1.454C7.63642 1.44698 7.62472 1.4432 7.61272 1.4432C7.60071 1.4432 7.58902 1.44698 7.57928 1.454L7.29272 1.66212C7.28307 1.66898 7.27153 1.67266 7.25969 1.67265C7.24786 1.67264 7.23632 1.66894 7.22669 1.66206C7.21706 1.65518 7.20982 1.64547 7.20597 1.63428C7.20212 1.62308 7.20185 1.61097 7.20522 1.59962L7.3149 1.26275C7.31832 1.25147 7.31817 1.23942 7.31448 1.22823C7.31079 1.21705 7.30374 1.20727 7.29428 1.20025L7.00772 0.992122C6.99803 0.985052 6.99083 0.975101 6.98714 0.963692C6.98345 0.952282 6.98345 0.939998 6.98716 0.928594C6.99087 0.917191 6.99809 0.907251 7.00779 0.900196C7.01748 0.89314 7.02916 0.88933 7.04115 0.88931H7.39522C7.40722 0.889251 7.4189 0.885417 7.4286 0.87835C7.43831 0.871283 7.44554 0.861342 7.44928 0.849935L7.55865 0.513372C7.56214 0.501613 7.56933 0.491296 7.57916 0.483958C7.58898 0.476621 7.60092 0.472656 7.61318 0.472656C7.62545 0.472656 7.63739 0.476621 7.64721 0.483958C7.65704 0.491296 7.66423 0.501613 7.66772 0.513372Z" fill="white"/>
<path d="M3.87094 1.23109C3.86808 1.24132 3.86808 1.25212 3.87094 1.26234L3.98063 1.59859C3.98399 1.60994 3.98372 1.62206 3.97988 1.63325C3.97603 1.64444 3.96878 1.65415 3.95915 1.66103C3.94952 1.66791 3.93798 1.67161 3.92615 1.67162C3.91431 1.67163 3.90277 1.66795 3.89313 1.66109L3.60656 1.45328C3.59687 1.44629 3.58523 1.44253 3.57328 1.44253C3.56133 1.44253 3.54969 1.44629 3.54 1.45328L3.25344 1.66109C3.24567 1.66683 3.23657 1.67049 3.22699 1.67172C3.21741 1.67294 3.20767 1.67169 3.19871 1.66809C3.18975 1.66449 3.18186 1.65865 3.1758 1.65113C3.16973 1.64362 3.16569 1.63468 3.16406 1.62516C3.34781 1.48578 3.53906 1.35359 3.73344 1.23047C3.88573 1.13422 4.04135 1.04307 4.20031 0.957031C4.19673 0.96969 4.18889 0.980727 4.17812 0.988281L3.89156 1.19641C3.88074 1.20512 3.87342 1.21743 3.87094 1.23109Z" fill="white"/>
<path d="M7.66678 3.13265L7.77615 3.46953C7.77986 3.48093 7.7871 3.49085 7.79681 3.49787C7.80653 3.5049 7.81823 3.50865 7.83022 3.50859H8.18553C8.19752 3.50861 8.2092 3.51242 8.2189 3.51947C8.22859 3.52653 8.23581 3.53647 8.23952 3.54787C8.24323 3.55928 8.24324 3.57156 8.23955 3.58297C8.23585 3.59438 8.22865 3.60433 8.21897 3.6114L7.9324 3.81953C7.92284 3.82646 7.9157 3.83623 7.912 3.84745C7.90829 3.85866 7.90822 3.87076 7.91178 3.88203L8.0199 4.21953C8.02327 4.23087 8.023 4.24299 8.01915 4.25418C8.0153 4.26537 8.00806 4.27508 7.99843 4.28196C7.9888 4.28884 7.97726 4.29254 7.96543 4.29256C7.95359 4.29257 7.94205 4.28889 7.9324 4.28203L7.64615 4.0739C7.63642 4.06688 7.62472 4.06311 7.61272 4.06311C7.60071 4.06311 7.58902 4.06688 7.57928 4.0739L7.29272 4.28203C7.28307 4.28889 7.27153 4.29257 7.25969 4.29256C7.24786 4.29254 7.23632 4.28884 7.22669 4.28196C7.21706 4.27508 7.20982 4.26537 7.20597 4.25418C7.20212 4.24299 7.20185 4.23087 7.20522 4.21953L7.3149 3.88265C7.31832 3.87138 7.31817 3.85932 7.31448 3.84814C7.31079 3.83695 7.30374 3.82718 7.29428 3.82015L7.00772 3.61203C6.99803 3.60496 6.99083 3.59501 6.98714 3.5836C6.98345 3.57219 6.98345 3.5599 6.98716 3.5485C6.99087 3.5371 6.99809 3.52716 7.00779 3.5201C7.01748 3.51304 7.02916 3.50923 7.04115 3.50921H7.39522C7.40719 3.50922 7.41887 3.50545 7.42857 3.49844C7.43828 3.49143 7.44553 3.48153 7.44928 3.47015L7.55865 3.13328C7.56231 3.12185 7.56949 3.11188 7.57916 3.10478C7.58883 3.09768 7.60049 3.09382 7.61249 3.09375C7.62448 3.09368 7.6362 3.09741 7.64595 3.10439C7.6557 3.11138 7.66299 3.12127 7.66678 3.13265Z" fill="white"/>
<path d="M5.64725 3.13079L5.75662 3.46766C5.76033 3.47906 5.76757 3.48899 5.77728 3.49601C5.787 3.50303 5.7987 3.50678 5.81069 3.50673H6.16475C6.17674 3.50675 6.18842 3.51056 6.19811 3.51761C6.20781 3.52467 6.21503 3.53461 6.21874 3.54601C6.22245 3.55741 6.22246 3.5697 6.21876 3.58111C6.21507 3.59252 6.20787 3.60247 6.19819 3.60954L5.91162 3.81766C5.90209 3.82463 5.89498 3.8344 5.89128 3.8456C5.88759 3.85681 5.88749 3.8689 5.891 3.88016L5.99944 4.21766C6.00293 4.229 6.00277 4.24114 5.99898 4.25238C5.9952 4.26362 5.98797 4.27338 5.97834 4.28029C5.9687 4.2872 5.95713 4.29091 5.94527 4.29088C5.93341 4.29086 5.92186 4.28711 5.91225 4.28016L5.62568 4.07204C5.61595 4.06502 5.60425 4.06124 5.59225 4.06124C5.58025 4.06124 5.56855 4.06502 5.55881 4.07204L5.27318 4.28016C5.26357 4.28711 5.25202 4.29086 5.24016 4.29088C5.2283 4.29091 5.21674 4.2872 5.2071 4.28029C5.19746 4.27338 5.19024 4.26362 5.18645 4.25238C5.18266 4.24114 5.1825 4.229 5.186 4.21766L5.29537 3.88079C5.29888 3.86952 5.29878 3.85744 5.29509 3.84623C5.29139 3.83502 5.28428 3.82525 5.27475 3.81829L4.98819 3.61016C4.9785 3.60309 4.9713 3.59314 4.96761 3.58173C4.96391 3.57032 4.96392 3.55804 4.96763 3.54663C4.97134 3.53523 4.97856 3.52529 4.98826 3.51824C4.99795 3.51118 5.00963 3.50737 5.02162 3.50735H5.37444C5.38642 3.50741 5.39812 3.50366 5.40784 3.49664C5.41755 3.48961 5.42479 3.47969 5.4285 3.46829L5.53787 3.13141C5.5412 3.11951 5.54831 3.10901 5.55814 3.10151C5.56796 3.09401 5.57996 3.08992 5.59232 3.08984C5.60468 3.08977 5.61673 3.09373 5.62664 3.10112C5.63655 3.10851 5.64379 3.11892 5.64725 3.13079Z" fill="white"/>
<path d="M2.1543 3.61203L2.04086 3.69422L1.86774 3.81922C1.85824 3.82621 1.85116 3.83599 1.84746 3.84718C1.84377 3.85838 1.84365 3.87045 1.84711 3.88172L1.95742 4.21984C1.96058 4.23116 1.96019 4.24317 1.95628 4.25425C1.95237 4.26533 1.94515 4.27494 1.93559 4.28177C1.92602 4.2886 1.91459 4.29232 1.90284 4.29242C1.8911 4.29252 1.8796 4.28901 1.86992 4.28234L1.58367 4.07391C1.57394 4.06689 1.56224 4.06311 1.55024 4.06311C1.53823 4.06311 1.52653 4.06689 1.5168 4.07391L1.23024 4.28234C1.22056 4.28901 1.20906 4.29252 1.19731 4.29242C1.18557 4.29232 1.17413 4.2886 1.16457 4.28177C1.15501 4.27494 1.14779 4.26533 1.14388 4.25425C1.13997 4.24317 1.13957 4.23116 1.14274 4.21984L1.25242 3.88328C1.25575 3.872 1.25556 3.85998 1.25187 3.84881C1.24819 3.83764 1.24118 3.82787 1.2318 3.82078L1.19367 3.79297C1.21399 3.76172 1.23461 3.72797 1.25617 3.69516C1.37024 3.51734 1.49117 3.34359 1.61867 3.17578L1.71367 3.46984C1.71737 3.48128 1.72459 3.49124 1.7343 3.49832C1.74402 3.50539 1.75572 3.50921 1.76774 3.50922H2.12305C2.13476 3.50986 2.14599 3.51408 2.15523 3.52132C2.16446 3.52856 2.17124 3.53847 2.17465 3.54969C2.17806 3.56091 2.17794 3.57292 2.1743 3.58407C2.17066 3.59522 2.16367 3.60498 2.1543 3.61203Z" fill="white"/>
<path d="M7.66944 5.79912L7.77881 6.136C7.78256 6.14737 7.78981 6.15727 7.79951 6.16428C7.80922 6.1713 7.8209 6.17507 7.83287 6.17506H8.18819C8.20018 6.17508 8.21186 6.17889 8.22155 6.18594C8.23125 6.193 8.23847 6.20294 8.24218 6.21434C8.24588 6.22575 8.24589 6.23803 8.2422 6.24944C8.23851 6.26085 8.23131 6.2708 8.22162 6.27787L7.93506 6.486C7.92549 6.49293 7.91835 6.5027 7.91465 6.51391C7.91095 6.52513 7.91087 6.53723 7.91444 6.5485L8.02381 6.88537C8.02717 6.89672 8.02691 6.90883 8.02306 6.92002C8.01921 6.93122 8.01197 6.94093 8.00234 6.94781C7.99271 6.95469 7.98117 6.95839 7.96933 6.9584C7.9575 6.95841 7.94595 6.95473 7.93631 6.94787L7.65006 6.73975C7.64032 6.73273 7.62863 6.72895 7.61662 6.72895C7.60462 6.72895 7.59292 6.73273 7.58319 6.73975L7.29662 6.94787C7.28698 6.95473 7.27544 6.95841 7.2636 6.9584C7.25176 6.95839 7.24023 6.95469 7.2306 6.94781C7.22097 6.94093 7.21372 6.93122 7.20987 6.92002C7.20602 6.90883 7.20576 6.89672 7.20912 6.88537L7.31881 6.5485C7.32223 6.53722 7.32208 6.52517 7.31839 6.51398C7.3147 6.50279 7.30764 6.49302 7.29819 6.486L7.01162 6.27787C7.00194 6.2708 6.99473 6.26085 6.99104 6.24944C6.98735 6.23803 6.98736 6.22575 6.99107 6.21434C6.99478 6.20294 7.002 6.193 7.01169 6.18594C7.02139 6.17889 7.03307 6.17508 7.04506 6.17506H7.39912C7.41109 6.17502 7.42274 6.17123 7.43244 6.16422C7.44214 6.15722 7.44939 6.14734 7.45319 6.136L7.56256 5.79912C7.56656 5.78816 7.57383 5.77869 7.58338 5.772C7.59294 5.76531 7.60433 5.76172 7.616 5.76172C7.62767 5.76172 7.63905 5.76531 7.64861 5.772C7.65817 5.77869 7.66544 5.78816 7.66944 5.79912Z" fill="white"/>
<path d="M5.64818 5.7986L5.75756 6.13548C5.76131 6.14685 5.76856 6.15675 5.77826 6.16377C5.78797 6.17078 5.79965 6.17455 5.81162 6.17454H6.16568C6.17768 6.17456 6.18936 6.17837 6.19905 6.18543C6.20875 6.19248 6.21597 6.20242 6.21968 6.21383C6.22338 6.22523 6.22339 6.23751 6.2197 6.24892C6.21601 6.26033 6.20881 6.27028 6.19912 6.27735L5.91256 6.48548C5.90303 6.49244 5.89592 6.50221 5.89222 6.51342C5.88852 6.52463 5.88842 6.53671 5.89193 6.54798L6.00037 6.88579C6.00387 6.89713 6.00371 6.90927 5.99992 6.92051C5.99613 6.93175 5.98891 6.94151 5.97927 6.94842C5.96963 6.95533 5.95807 6.95904 5.94621 6.95901C5.93435 6.95899 5.9228 6.95524 5.91319 6.94829L5.62662 6.74017C5.61689 6.73315 5.60519 6.72937 5.59319 6.72937C5.58118 6.72937 5.56948 6.73315 5.55975 6.74017L5.27318 6.94829C5.26357 6.95524 5.25202 6.95899 5.24016 6.95901C5.2283 6.95904 5.21674 6.95533 5.2071 6.94842C5.19746 6.94151 5.19024 6.93175 5.18645 6.92051C5.18266 6.90927 5.1825 6.89713 5.186 6.88579L5.29537 6.54892C5.29888 6.53765 5.29878 6.52557 5.29509 6.51436C5.29139 6.50315 5.28428 6.49338 5.27475 6.48642L4.98819 6.27829C4.9785 6.27122 4.9713 6.26127 4.96761 6.24986C4.96391 6.23845 4.96392 6.22617 4.96763 6.21476C4.97134 6.20336 4.97856 6.19342 4.98826 6.18637C4.99795 6.17931 5.00963 6.1755 5.02162 6.17548H5.37537C5.38735 6.17549 5.39902 6.17172 5.40873 6.1647C5.41844 6.15769 5.42568 6.14779 5.42943 6.13642L5.53881 5.79954C5.5421 5.78763 5.54919 5.77711 5.55899 5.76958C5.56879 5.76205 5.58078 5.75792 5.59314 5.75781C5.6055 5.75771 5.61756 5.76163 5.62749 5.76899C5.63743 5.77635 5.64469 5.78675 5.64818 5.7986Z" fill="white"/>
<path d="M3.62684 5.79907L3.73621 6.13594C3.74001 6.14729 3.74726 6.15716 3.75696 6.16417C3.76666 6.17118 3.77831 6.17497 3.79028 6.175H4.14434C4.15633 6.17502 4.16801 6.17883 4.1777 6.18589C4.1874 6.19294 4.19462 6.20288 4.19833 6.21429C4.20204 6.22569 4.20205 6.23798 4.19836 6.24938C4.19466 6.26079 4.18746 6.27075 4.17778 6.27782L3.89121 6.48594C3.88176 6.49297 3.8747 6.50274 3.87101 6.51393C3.86732 6.52511 3.86717 6.53717 3.87059 6.54844L3.98028 6.88532C3.98364 6.89666 3.98338 6.90878 3.97953 6.91997C3.97568 6.93116 3.96843 6.94087 3.9588 6.94775C3.94917 6.95463 3.93763 6.95833 3.9258 6.95834C3.91396 6.95836 3.90242 6.95468 3.89278 6.94782L3.60621 6.73969C3.59652 6.7327 3.58488 6.72894 3.57293 6.72894C3.56098 6.72894 3.54934 6.7327 3.53965 6.73969L3.25309 6.94782C3.24344 6.95468 3.2319 6.95836 3.22007 6.95834C3.20823 6.95833 3.19669 6.95463 3.18706 6.94775C3.17743 6.94087 3.17019 6.93116 3.16634 6.91997C3.16249 6.90878 3.16223 6.89666 3.16559 6.88532L3.27496 6.54844C3.27852 6.53718 3.27845 6.52508 3.27475 6.51386C3.27104 6.50264 3.2639 6.49287 3.25434 6.48594L2.96871 6.27782C2.95916 6.27086 2.95201 6.2611 2.94826 6.2499C2.9445 6.2387 2.94433 6.2266 2.94777 6.21529C2.95121 6.20399 2.95808 6.19403 2.96743 6.18681C2.97679 6.17959 2.98816 6.17547 2.99996 6.175H3.35403C3.366 6.17501 3.37768 6.17124 3.38738 6.16423C3.39709 6.15721 3.40434 6.14731 3.40809 6.13594L3.51746 5.79907C3.52086 5.78718 3.52803 5.77673 3.5379 5.76928C3.54777 5.76184 3.55979 5.75781 3.57215 5.75781C3.58451 5.75781 3.59653 5.76184 3.6064 5.76928C3.61627 5.77673 3.62344 5.78718 3.62684 5.79907Z" fill="white"/>
<path d="M1.60522 5.80093L1.71459 6.1378C1.71834 6.14918 1.72559 6.15908 1.7353 6.16609C1.745 6.17311 1.75668 6.17688 1.76865 6.17687H2.12397C2.13577 6.17733 2.14714 6.18146 2.1565 6.18868C2.16585 6.1959 2.17272 6.20585 2.17616 6.21716C2.1796 6.22846 2.17943 6.24056 2.17567 6.25176C2.17192 6.26297 2.16477 6.27273 2.15522 6.27968L1.86865 6.4878C1.85909 6.49474 1.85195 6.50451 1.84825 6.51572C1.84454 6.52694 1.84447 6.53904 1.84803 6.5503L1.9574 6.88718C1.96077 6.89853 1.9605 6.91064 1.95665 6.92183C1.9528 6.93302 1.94556 6.94274 1.93593 6.94962C1.9263 6.95649 1.91476 6.9602 1.90293 6.96021C1.89109 6.96022 1.87955 6.95654 1.8699 6.94968L1.58365 6.74156C1.57392 6.73454 1.56222 6.73076 1.55022 6.73076C1.53821 6.73076 1.52652 6.73454 1.51678 6.74156L1.23022 6.94968C1.22057 6.95654 1.20903 6.96022 1.19719 6.96021C1.18536 6.9602 1.17382 6.95649 1.16419 6.94962C1.15456 6.94274 1.14732 6.93302 1.14347 6.92183C1.13962 6.91064 1.13935 6.89853 1.14272 6.88718L1.2524 6.5503C1.25582 6.53903 1.25568 6.52698 1.25198 6.51579C1.24829 6.5046 1.24124 6.49483 1.23178 6.4878L0.945216 6.27968C0.935531 6.27261 0.928328 6.26266 0.924637 6.25125C0.920945 6.23984 0.920955 6.22756 0.924664 6.21615C0.928372 6.20475 0.935591 6.19481 0.945287 6.18775C0.954984 6.1807 0.966662 6.17689 0.978654 6.17687H1.33365C1.34562 6.17683 1.35727 6.17304 1.36697 6.16603C1.37667 6.15903 1.38392 6.14915 1.38772 6.1378L1.49709 5.80093C1.50082 5.78953 1.50805 5.7796 1.51776 5.77255C1.52747 5.76551 1.53916 5.76172 1.55115 5.76172C1.56315 5.76172 1.57484 5.76551 1.58455 5.77255C1.59426 5.7796 1.60149 5.78953 1.60522 5.80093Z" fill="white"/>
<path d="M6.65809 1.74828L6.76746 2.08516C6.77121 2.09653 6.77846 2.10643 6.78817 2.11345C6.79788 2.12046 6.80955 2.12423 6.82153 2.12422H7.17559C7.18758 2.12424 7.19926 2.12805 7.20895 2.13511C7.21865 2.14216 7.22587 2.1521 7.22958 2.16351C7.23329 2.17491 7.2333 2.18719 7.22961 2.1986C7.22591 2.21001 7.21871 2.21996 7.20903 2.22703L6.92246 2.43516C6.91301 2.44218 6.90595 2.45196 6.90226 2.46314C6.89857 2.47433 6.89842 2.48639 6.90184 2.49766L7.01153 2.83453C7.01489 2.84588 7.01463 2.858 7.01078 2.86919C7.00693 2.88038 6.99968 2.89009 6.99005 2.89697C6.98042 2.90385 6.96888 2.90755 6.95705 2.90756C6.94521 2.90758 6.93367 2.90389 6.92403 2.89703L6.63746 2.68891C6.62777 2.68192 6.61613 2.67816 6.60418 2.67816C6.59223 2.67816 6.58059 2.68192 6.5709 2.68891L6.28434 2.89703C6.27469 2.90389 6.26315 2.90758 6.25132 2.90756C6.23948 2.90755 6.22794 2.90385 6.21831 2.89697C6.20868 2.89009 6.20144 2.88038 6.19759 2.86919C6.19374 2.858 6.19348 2.84588 6.19684 2.83453L6.30621 2.49766C6.30977 2.4864 6.3097 2.4743 6.306 2.46308C6.30229 2.45186 6.29515 2.44209 6.28559 2.43516L5.99996 2.22703C5.99041 2.22008 5.98326 2.21032 5.97951 2.19912C5.97575 2.18791 5.97558 2.17582 5.97902 2.16451C5.98246 2.15321 5.98933 2.14325 5.99868 2.13603C6.00804 2.12881 6.01941 2.12468 6.03121 2.12422H6.38528C6.39726 2.12428 6.40896 2.12053 6.41868 2.11351C6.42839 2.10649 6.43563 2.09656 6.43934 2.08516L6.54871 1.74828C6.55211 1.7364 6.55928 1.72594 6.56915 1.7185C6.57902 1.71106 6.59104 1.70703 6.6034 1.70703C6.61576 1.70703 6.62778 1.71106 6.63765 1.7185C6.64752 1.72594 6.65469 1.7364 6.65809 1.74828Z" fill="white"/>
<path d="M2.86054 2.46141C2.85695 2.4728 2.85695 2.48502 2.86054 2.49641L2.96898 2.83297C2.97227 2.84427 2.97196 2.85631 2.96812 2.86744C2.96427 2.87856 2.95707 2.88821 2.9475 2.89507C2.93794 2.90193 2.92648 2.90565 2.91471 2.90572C2.90294 2.90579 2.89144 2.90221 2.88179 2.89547L2.59523 2.68703C2.58549 2.68001 2.57379 2.67624 2.56179 2.67624C2.54979 2.67624 2.53809 2.68001 2.52835 2.68703L2.24179 2.89547C2.23214 2.90221 2.22064 2.90579 2.20887 2.90572C2.19711 2.90565 2.18565 2.90193 2.17608 2.89507C2.16652 2.88821 2.15931 2.87856 2.15547 2.86744C2.15162 2.85631 2.15132 2.84427 2.1546 2.83297L2.26398 2.49641C2.26758 2.48502 2.26758 2.4728 2.26398 2.46141C2.26189 2.45183 2.25712 2.44305 2.25023 2.43609C2.39606 2.28609 2.54658 2.14203 2.70179 2.00391L2.72679 2.08109C2.7303 2.09286 2.73752 2.10318 2.74738 2.1105C2.75724 2.11782 2.7692 2.12176 2.78148 2.12172H3.13554C3.14752 2.12185 3.15915 2.12574 3.1688 2.13283C3.17845 2.13993 3.18563 2.14987 3.18932 2.16126C3.19302 2.17266 3.19304 2.18492 3.18939 2.19633C3.18574 2.20774 3.1786 2.21771 3.16898 2.22484L2.88242 2.43266C2.87216 2.43957 2.86447 2.44968 2.86054 2.46141Z" fill="white"/>
<path d="M1.25828 4.92391C1.25749 4.9317 1.25501 4.93924 1.25102 4.94598C1.24702 4.95273 1.24161 4.95852 1.23516 4.96297L0.948594 5.17141C0.939137 5.17843 0.932081 5.1882 0.928389 5.19939C0.924698 5.21058 0.924551 5.22263 0.927969 5.23391L1.03734 5.57078C1.04084 5.58211 1.04068 5.59426 1.03689 5.6055C1.03311 5.61674 1.02588 5.6265 1.01624 5.63341C1.00661 5.64032 0.995039 5.64403 0.983179 5.644C0.97132 5.64398 0.959768 5.64023 0.950156 5.63328L0.663594 5.42547C0.653975 5.41817 0.642231 5.41422 0.630156 5.41422C0.618081 5.41422 0.606338 5.41817 0.596719 5.42547L0.371094 5.58953C0.442552 5.36203 0.523802 5.13953 0.614844 4.92203C0.653594 4.82828 0.694219 4.73641 0.737031 4.64453L0.793594 4.81922C0.797279 4.83068 0.804489 4.84069 0.814197 4.84782C0.823904 4.85495 0.835614 4.85883 0.847656 4.85891H1.20172C1.2099 4.85887 1.21799 4.86059 1.22544 4.86396C1.23289 4.86734 1.23953 4.87228 1.24489 4.87845C1.25026 4.88461 1.25424 4.89187 1.25655 4.89971C1.25886 4.90756 1.25945 4.91581 1.25828 4.92391Z" fill="white"/>
<path d="M6.65803 4.48315L6.7674 4.82002C6.7712 4.83137 6.77845 4.84124 6.78815 4.84825C6.79785 4.85526 6.8095 4.85905 6.82147 4.85909H7.17553C7.18752 4.85911 7.1992 4.86292 7.2089 4.86997C7.21859 4.87703 7.22581 4.88697 7.22952 4.89837C7.23323 4.90977 7.23324 4.92206 7.22955 4.93347C7.22585 4.94488 7.21865 4.95483 7.20897 4.9619L6.9224 5.17002C6.91295 5.17705 6.90589 5.18682 6.9022 5.19801C6.89851 5.2092 6.89836 5.22125 6.90178 5.23252L7.01147 5.5694C7.01483 5.58075 7.01457 5.59286 7.01072 5.60405C7.00687 5.61524 6.99962 5.62496 6.98999 5.63183C6.98036 5.63871 6.96882 5.64242 6.95699 5.64243C6.94515 5.64244 6.93361 5.63876 6.92397 5.6319L6.6374 5.42377C6.62771 5.41678 6.61607 5.41302 6.60412 5.41302C6.59217 5.41302 6.58053 5.41678 6.57084 5.42377L6.28428 5.6319C6.27463 5.63876 6.26309 5.64244 6.25126 5.64243C6.23942 5.64242 6.22788 5.63871 6.21825 5.63183C6.20862 5.62496 6.20138 5.61524 6.19753 5.60405C6.19368 5.59286 6.19342 5.58075 6.19678 5.5694L6.30615 5.23252C6.30971 5.22126 6.30964 5.20916 6.30594 5.19794C6.30223 5.18672 6.29509 5.17696 6.28553 5.17002L5.9999 4.9619C5.99022 4.95483 5.98302 4.94488 5.97932 4.93347C5.97563 4.92206 5.97564 4.90977 5.97935 4.89837C5.98306 4.88697 5.99028 4.87703 5.99997 4.86997C6.00967 4.86292 6.02135 4.85911 6.03334 4.85909H6.3874C6.39938 4.8591 6.41105 4.85533 6.42076 4.84831C6.43047 4.8413 6.43772 4.8314 6.44147 4.82002L6.55084 4.48315C6.55477 4.47208 6.56204 4.4625 6.57163 4.45572C6.58123 4.44895 6.59269 4.44531 6.60444 4.44531C6.61618 4.44531 6.62764 4.44895 6.63724 4.45572C6.64683 4.4625 6.6541 4.47208 6.65803 4.48315Z" fill="white"/>
<path d="M4.63818 4.48271L4.74756 4.81959C4.75131 4.83096 4.75856 4.84086 4.76826 4.84788C4.77797 4.85489 4.78965 4.85866 4.80162 4.85865H5.15694C5.16893 4.85867 5.18061 4.86248 5.1903 4.86954C5.2 4.87659 5.20722 4.88653 5.21093 4.89794C5.21463 4.90934 5.21464 4.92162 5.21095 4.93303C5.20726 4.94444 5.20006 4.95439 5.19037 4.96146L4.90381 5.16959C4.89424 5.17652 4.8871 5.18629 4.8834 5.19751C4.8797 5.20873 4.87962 5.22083 4.88319 5.23209L4.99256 5.56896C4.99592 5.58031 4.99566 5.59243 4.99181 5.60362C4.98796 5.61481 4.98072 5.62452 4.97109 5.6314C4.96145 5.63828 4.94992 5.64198 4.93808 5.64199C4.92625 5.64201 4.9147 5.63832 4.90506 5.63146L4.61881 5.42334C4.60907 5.41632 4.59738 5.41255 4.58537 5.41255C4.57337 5.41255 4.56167 5.41632 4.55194 5.42334L4.26537 5.63146C4.25573 5.63832 4.24418 5.64201 4.23235 5.64199C4.22051 5.64198 4.20898 5.63828 4.19935 5.6314C4.18972 5.62452 4.18247 5.61481 4.17862 5.60362C4.17477 5.59243 4.17451 5.58031 4.17787 5.56896L4.28756 5.23209C4.29098 5.22082 4.29083 5.20876 4.28714 5.19758C4.28345 5.18639 4.27639 5.17661 4.26694 5.16959L3.98037 4.96146C3.97069 4.95439 3.96348 4.94444 3.95979 4.93303C3.9561 4.92162 3.95611 4.90934 3.95982 4.89794C3.96353 4.88653 3.97075 4.87659 3.98044 4.86954C3.99014 4.86248 4.00182 4.85867 4.01381 4.85865H4.36787C4.37984 4.85862 4.39149 4.85483 4.40119 4.84782C4.41089 4.84081 4.41814 4.83094 4.42194 4.81959L4.53131 4.48271C4.5353 4.47175 4.54258 4.46228 4.55213 4.45559C4.56169 4.4489 4.57308 4.44531 4.58475 4.44531C4.59642 4.44531 4.6078 4.4489 4.61736 4.45559C4.62692 4.46228 4.63419 4.47175 4.63818 4.48271Z" fill="white"/>
<path d="M0.94625 7.8553C0.936721 7.86227 0.92961 7.87204 0.925911 7.88325C0.922213 7.89445 0.922113 7.90654 0.925625 7.9178L1.035 8.25499C1.03849 8.26633 1.03833 8.27847 1.03455 8.28971C1.03076 8.30095 1.02354 8.31071 1.0139 8.31762C1.00426 8.32453 0.992695 8.32824 0.980836 8.32821C0.968976 8.32819 0.957424 8.32444 0.947812 8.31749L0.66125 8.10968C0.65157 8.10252 0.63985 8.09866 0.627813 8.09866C0.615775 8.09866 0.604055 8.10252 0.594375 8.10968L0.308125 8.31874C0.29852 8.32582 0.286924 8.32967 0.274996 8.32976C0.263068 8.32984 0.251417 8.32616 0.241711 8.31922C0.232004 8.31229 0.224738 8.30246 0.220951 8.29115C0.217164 8.27984 0.21705 8.26762 0.220625 8.25624L0.33 7.91905C0.333609 7.90779 0.333558 7.89568 0.329852 7.88445C0.326146 7.87322 0.318978 7.86346 0.309375 7.85655L0.0228125 7.64687C0.0168064 7.6426 0.0117077 7.63718 0.0078125 7.63093C0.0078125 7.60937 0.0096875 7.58781 0.0109375 7.56656C0.0161356 7.55947 0.0229731 7.55375 0.0308646 7.54989C0.0387561 7.54602 0.0474665 7.54413 0.05625 7.54437H0.410312C0.422355 7.54429 0.434065 7.54041 0.443772 7.53328C0.45348 7.52615 0.46069 7.51614 0.464375 7.50468L0.503437 7.38468L0.57375 7.16812C0.577475 7.15672 0.58471 7.14678 0.59442 7.13974C0.60413 7.1327 0.615818 7.12891 0.627813 7.12891C0.639807 7.12891 0.651495 7.1327 0.661205 7.13974C0.670915 7.14678 0.67815 7.15672 0.681875 7.16812L0.752187 7.38468L0.79125 7.50468C0.794935 7.51614 0.802145 7.52615 0.811853 7.53328C0.821561 7.54041 0.83327 7.54429 0.845312 7.54437H1.19938C1.21138 7.54427 1.22311 7.548 1.23286 7.55502C1.2426 7.56203 1.24986 7.57197 1.25359 7.58339C1.25731 7.5948 1.25731 7.60711 1.25357 7.61852C1.24984 7.62993 1.24257 7.63986 1.23281 7.64687L0.94625 7.8553Z" fill="white"/>
<path d="M6.65803 7.16674L6.7674 7.50362C6.77115 7.51499 6.7784 7.52489 6.78811 7.53191C6.79782 7.53892 6.80949 7.54269 6.82147 7.54268H7.17553C7.18752 7.5427 7.1992 7.54651 7.2089 7.55357C7.21859 7.56062 7.22581 7.57056 7.22952 7.58196C7.23323 7.59337 7.23324 7.60565 7.22955 7.61706C7.22585 7.62847 7.21865 7.63842 7.20897 7.64549L6.9224 7.85362C6.91302 7.8607 6.90601 7.87048 6.90233 7.88165C6.89864 7.89281 6.89845 7.90484 6.90178 7.91612L7.01147 8.25268C7.01483 8.26403 7.01457 8.27614 7.01072 8.28733C7.00687 8.29852 6.99962 8.30824 6.98999 8.31512C6.98036 8.32199 6.96882 8.3257 6.95699 8.32571C6.94515 8.32572 6.93361 8.32204 6.92397 8.31518L6.6374 8.10706C6.62771 8.10006 6.61607 8.0963 6.60412 8.0963C6.59217 8.0963 6.58053 8.10006 6.57084 8.10706L6.28428 8.31518C6.27463 8.32204 6.26309 8.32572 6.25126 8.32571C6.23942 8.3257 6.22788 8.32199 6.21825 8.31512C6.20862 8.30824 6.20138 8.29852 6.19753 8.28733C6.19368 8.27614 6.19342 8.26403 6.19678 8.25268L6.30615 7.91612C6.30962 7.90485 6.3095 7.89278 6.3058 7.88158C6.30211 7.87038 6.29502 7.86061 6.28553 7.85362L5.9999 7.64549C5.99022 7.63842 5.98302 7.62847 5.97932 7.61706C5.97563 7.60565 5.97564 7.59337 5.97935 7.58196C5.98306 7.57056 5.99028 7.56062 5.99997 7.55357C6.00967 7.54651 6.02135 7.5427 6.03334 7.54268H6.3874C6.39939 7.54274 6.41109 7.53899 6.42081 7.53197C6.43052 7.52494 6.43776 7.51502 6.44147 7.50362L6.55084 7.16674C6.55477 7.15567 6.56204 7.14609 6.57163 7.13932C6.58123 7.13254 6.59269 7.12891 6.60444 7.12891C6.61618 7.12891 6.62764 7.13254 6.63724 7.13932C6.64683 7.14609 6.6541 7.15567 6.65803 7.16674Z" fill="white"/>
<path d="M4.63647 7.16962L4.74584 7.5065C4.74955 7.5179 4.75679 7.52782 4.7665 7.53484C4.77622 7.54187 4.78792 7.54562 4.7999 7.54556H5.15522C5.16702 7.54602 5.17839 7.55015 5.18775 7.55737C5.1971 7.56459 5.20397 7.57455 5.20741 7.58585C5.21085 7.59716 5.21068 7.60925 5.20692 7.62046C5.20317 7.63166 5.19602 7.64142 5.18647 7.64837L4.8999 7.8565C4.89041 7.86349 4.88333 7.87326 4.87963 7.88446C4.87594 7.89566 4.87581 7.90773 4.87928 7.919L4.98865 8.25556C4.99202 8.26691 4.99175 8.27902 4.9879 8.29021C4.98405 8.3014 4.97681 8.31112 4.96718 8.318C4.95755 8.32487 4.94601 8.32858 4.93418 8.32859C4.92234 8.3286 4.9108 8.32492 4.90115 8.31806L4.6149 8.10993C4.60517 8.10292 4.59347 8.09914 4.58147 8.09914C4.56946 8.09914 4.55777 8.10292 4.54803 8.10993L4.26147 8.31806C4.25182 8.32492 4.24028 8.3286 4.22844 8.32859C4.21661 8.32858 4.20507 8.32487 4.19544 8.318C4.18581 8.31112 4.17857 8.3014 4.17472 8.29021C4.17087 8.27902 4.17061 8.26691 4.17397 8.25556L4.28365 7.919C4.28698 7.90772 4.28679 7.89569 4.2831 7.88453C4.27942 7.87336 4.27242 7.86358 4.26303 7.8565L3.97647 7.64837C3.96678 7.6413 3.95958 7.63135 3.95589 7.61994C3.9522 7.60853 3.9522 7.59625 3.95591 7.58484C3.95962 7.57344 3.96684 7.5635 3.97654 7.55645C3.98623 7.54939 3.99791 7.54558 4.0099 7.54556H4.36397C4.37594 7.54557 4.38762 7.5418 4.39732 7.53479C4.40703 7.52777 4.41428 7.51787 4.41803 7.5065L4.5274 7.16962C4.53089 7.15786 4.53808 7.14755 4.54791 7.14021C4.55773 7.13287 4.56967 7.12891 4.58194 7.12891C4.5942 7.12891 4.60614 7.13287 4.61596 7.14021C4.62579 7.14755 4.63298 7.15786 4.63647 7.16962Z" fill="white"/>
<path d="M2.61694 7.16955L2.72631 7.50642C2.73008 7.51803 2.73751 7.52811 2.74748 7.53515C2.75744 7.54219 2.76942 7.54581 2.78162 7.54549H3.13569C3.14768 7.54551 3.15936 7.54932 3.16905 7.55637C3.17875 7.56343 3.18597 7.57337 3.18968 7.58477C3.19338 7.59617 3.19339 7.60846 3.1897 7.61987C3.18601 7.63128 3.17881 7.64123 3.16912 7.6483L2.88256 7.85642C2.8731 7.86345 2.86605 7.87322 2.86236 7.88441C2.85866 7.8956 2.85852 7.90765 2.86194 7.91892L2.96912 8.25674C2.97262 8.26807 2.97246 8.28021 2.96867 8.29145C2.96488 8.30269 2.95766 8.31245 2.94802 8.31936C2.93838 8.32627 2.92682 8.32998 2.91496 8.32996C2.9031 8.32993 2.89155 8.32618 2.88194 8.31924L2.59537 8.11111C2.58564 8.10409 2.57394 8.10032 2.56194 8.10032C2.54993 8.10032 2.53823 8.10409 2.5285 8.11111L2.24194 8.31924C2.23232 8.32618 2.22077 8.32993 2.20891 8.32996C2.19705 8.32998 2.18549 8.32627 2.17585 8.31936C2.16621 8.31245 2.15899 8.30269 2.1552 8.29145C2.15141 8.28021 2.15126 8.26807 2.15475 8.25674L2.26412 7.92017C2.26754 7.9089 2.26739 7.89685 2.2637 7.88566C2.26001 7.87447 2.25295 7.8647 2.2435 7.85767L1.95694 7.64955C1.94725 7.64248 1.94005 7.63253 1.93636 7.62112C1.93266 7.60971 1.93267 7.59742 1.93638 7.58602C1.94009 7.57462 1.94731 7.56468 1.95701 7.55762C1.9667 7.55057 1.97838 7.54676 1.99037 7.54674H2.34412C2.35611 7.54679 2.36781 7.54304 2.37752 7.53602C2.38724 7.529 2.39448 7.51907 2.39819 7.50767L2.50756 7.1708C2.51082 7.15887 2.51787 7.14833 2.52765 7.14077C2.53744 7.13322 2.54941 7.12905 2.56178 7.12891C2.57414 7.12877 2.58621 7.13266 2.59616 7.13999C2.60611 7.14732 2.61341 7.1577 2.61694 7.16955Z" fill="white"/>
<path d="M8.97 0.0565625C8.845 0.07125 8.72 0.0896875 8.595 0.110312C7.76407 0.250282 6.96076 0.521814 6.21531 0.914688C6.18844 0.928438 6.16187 0.943125 6.13531 0.957188C5.97615 1.04323 5.82052 1.13438 5.66844 1.23063H3.73438C3.88667 1.13438 4.04229 1.04323 4.20125 0.957188C5.3271 0.347894 6.58344 0.0195224 7.86344 0H8.13906C8.29219 0.0021875 8.44406 0.009375 8.595 0.0203125C8.72 0.0294792 8.845 0.0415625 8.97 0.0565625Z" fill="#DB1B1B"/>
<path d="M5.6675 1.23172C5.50875 1.3313 5.35406 1.43672 5.20344 1.54797C5.16813 1.57359 5.13313 1.59984 5.09813 1.62641C4.96281 1.72953 4.83125 1.83609 4.70313 1.94734C4.68031 1.96641 4.65781 1.98609 4.63531 2.00609C4.49219 2.13266 4.35406 2.26484 4.22031 2.40109L4.26531 2.43234C4.2751 2.43946 4.28233 2.44954 4.28594 2.46109H2.22656C2.23406 2.45297 2.24188 2.44516 2.24969 2.43703C2.39552 2.28703 2.54604 2.14297 2.70125 2.00484C2.85063 1.87297 3.0049 1.74641 3.16406 1.62516C3.34781 1.48578 3.53906 1.35359 3.73344 1.23047L5.6675 1.23172Z" fill="white"/>
<path d="M4.16094 2.46094C3.96546 2.66475 3.78083 2.87869 3.60781 3.10188L3.55438 3.17188C3.52531 3.21031 3.49656 3.24875 3.46812 3.28781L3.41 3.46688C3.4063 3.47831 3.39908 3.48828 3.38937 3.49535C3.37966 3.50242 3.36795 3.50624 3.35594 3.50625H3.31313C3.27125 3.56875 3.23063 3.62938 3.19063 3.69156H1.25781C1.37188 3.51375 1.49281 3.34 1.62031 3.17219C1.80851 2.92352 2.01104 2.68604 2.22687 2.46094H4.16094Z" fill="#DB1B1B"/>
<path d="M3.19141 3.69172L3.15703 3.74641L3.12984 3.78953C2.95922 4.06505 2.8055 4.35068 2.66953 4.64484C2.62672 4.73641 2.58609 4.82828 2.54734 4.92203H0.613281C0.652031 4.82828 0.692656 4.73641 0.735469 4.64453C0.871441 4.35037 1.02516 4.06474 1.19578 3.78922C1.21609 3.75797 1.23672 3.72422 1.25828 3.69141L3.19141 3.69172Z" fill="white"/>
<path d="M2.54766 4.9225C2.45661 5.14 2.37536 5.36229 2.30391 5.58938C2.24557 5.77417 2.19349 5.96167 2.14766 6.15188H0.214844C0.259427 5.96125 0.31151 5.77375 0.371094 5.58938C0.442552 5.36187 0.523802 5.13938 0.614844 4.92188L2.54766 4.9225Z" fill="#DB1B1B"/>
<path d="M2.15625 6.27797L2.11219 6.30922C2.03566 6.66315 1.98346 7.02191 1.95594 7.38297H0.0234375C0.0547558 6.96839 0.118598 6.55692 0.214375 6.15234H2.14844C2.14656 6.16078 2.14437 6.16953 2.1425 6.17766C2.15238 6.18112 2.16112 6.18724 2.16774 6.19535C2.17436 6.20346 2.17862 6.21324 2.18004 6.22361C2.18147 6.23398 2.18 6.24455 2.1758 6.25414C2.1716 6.26373 2.16484 6.27198 2.15625 6.27797Z" fill="white"/>
<path d="M1.93406 7.99813C1.93406 8.205 1.94187 8.4101 1.9575 8.61344H0.0234375C0.0078125 8.41031 0 8.20521 0 7.99813V7.59969C3.11555e-05 7.61007 0.00295271 7.62024 0.0084375 7.62906C0.0084375 7.6075 0.0103125 7.58594 0.0115625 7.56469C0.0146875 7.50375 0.01875 7.44344 0.0234375 7.38281H1.9575C1.95281 7.44344 1.94875 7.50375 1.94562 7.56469C1.94562 7.58594 1.94344 7.6075 1.9425 7.62906C1.93966 7.62475 1.93755 7.62 1.93625 7.615C1.93625 7.61219 1.93625 7.60969 1.93469 7.60719C1.93452 7.60469 1.93452 7.60218 1.93469 7.59969L1.93406 7.99813Z" fill="#DB1B1B"/>
<path d="M2.14844 9.84781H0.214375C0.118571 9.44324 0.0547288 9.03177 0.0234375 8.61719H1.9575C1.98879 9.03177 2.05263 9.44324 2.14844 9.84781Z" fill="#DBDBDB"/>
<path d="M2.54766 11.078H0.613594C0.447137 10.6795 0.31377 10.268 0.214844 9.84766H2.14891C2.24783 10.268 2.3812 10.6795 2.54766 11.078Z" fill="#C11A1A"/>
<path d="M3.19141 12.3088H1.25734C1.00711 11.9181 0.791596 11.5064 0.613281 11.0781H2.54734C2.72566 11.5064 2.94117 11.9181 3.19141 12.3088Z" fill="#DBDBDB"/>
<path d="M4.16062 13.5392H2.22656C1.86439 13.1615 1.53994 12.7493 1.25781 12.3086H3.19187C3.474 12.7493 3.79846 13.1615 4.16062 13.5392Z" fill="#C11A1A"/>
<path d="M5.6675 14.7697H3.73344C3.18316 14.422 2.67716 14.0088 2.22656 13.5391H4.16063C4.61123 14.0088 5.11722 14.422 5.6675 14.7697Z" fill="#DBDBDB"/>
<path d="M8.96734 15.9417C8.69769 15.975 8.4265 15.9944 8.15484 15.9998H7.84234C6.38485 15.9744 4.9624 15.5488 3.73047 14.7695H5.66453C6.66444 15.4013 7.79285 15.8018 8.96734 15.9417Z" fill="#C11A1A"/>
<path d="M8.59375 0.0203125V0.110312C7.76282 0.250282 6.95951 0.521814 6.21406 0.914688C6.18719 0.928438 6.16062 0.943125 6.13406 0.957188C5.9749 1.04323 5.81927 1.13438 5.66719 1.23063C5.50844 1.33021 5.35375 1.43562 5.20312 1.54688C5.16781 1.5725 5.13281 1.59875 5.09781 1.62531C4.9625 1.72844 4.83094 1.835 4.70281 1.94625C4.68 1.96531 4.6575 1.985 4.635 2.005C4.49188 2.13156 4.35375 2.26375 4.22 2.4L4.265 2.43125C4.27479 2.43837 4.28202 2.44845 4.28562 2.46H4.16062C3.96515 2.66381 3.78052 2.87775 3.6075 3.10094L3.55406 3.17094C3.525 3.20937 3.49625 3.24781 3.46781 3.28688L3.40937 3.46719C3.40568 3.47862 3.39846 3.48859 3.38874 3.49566C3.37903 3.50273 3.36733 3.50655 3.35531 3.50656H3.3125C3.27063 3.56906 3.23 3.62969 3.19 3.69187L3.15563 3.74656L3.12844 3.78969C2.95782 4.06521 2.8041 4.35084 2.66812 4.645C2.62531 4.73656 2.58469 4.82844 2.54594 4.92219C2.45573 5.13969 2.3749 5.36198 2.30344 5.58906C2.2451 5.77385 2.19302 5.96135 2.14719 6.15156C2.14531 6.16 2.14312 6.16875 2.14125 6.17688C2.15105 6.1803 2.15972 6.18634 2.16633 6.19434C2.17295 6.20235 2.17724 6.21201 2.17875 6.22228C2.18027 6.23254 2.17894 6.24303 2.17492 6.2526C2.1709 6.26217 2.16433 6.27046 2.15594 6.27656L2.11188 6.30781C2.03535 6.66174 1.98314 7.0205 1.95563 7.38156C1.95094 7.44219 1.94687 7.5025 1.94375 7.56344C1.94375 7.58469 1.94156 7.60625 1.94062 7.62781C1.93779 7.6235 1.93567 7.61875 1.93438 7.61375C1.93438 7.61094 1.93437 7.60844 1.93281 7.60594C1.93264 7.60344 1.93264 7.60093 1.93281 7.59844V7.99844C1.93281 8.20531 1.94062 8.41042 1.95625 8.61375H0.0234375C0.0078125 8.41063 0 8.20552 0 7.99844V7.6C3.11555e-05 7.61038 0.00295271 7.62056 0.0084375 7.62937C0.0084375 7.60781 0.0103125 7.58625 0.0115625 7.565C0.0146875 7.50406 0.01875 7.44375 0.0234375 7.38312C0.0547558 6.96855 0.118598 6.55707 0.214375 6.1525C0.258958 5.96187 0.311042 5.77437 0.370625 5.59C0.442083 5.3625 0.523333 5.14 0.614375 4.9225C0.653125 4.82875 0.69375 4.73688 0.736562 4.645C0.872535 4.35084 1.02626 4.06521 1.19687 3.78969C1.21719 3.75844 1.23781 3.72469 1.25937 3.69187C1.37344 3.51406 1.49437 3.34031 1.62188 3.1725C1.80937 2.92389 2.01117 2.68641 2.22625 2.46125C2.23375 2.45312 2.24156 2.44531 2.24938 2.43719C2.39521 2.28719 2.54573 2.14312 2.70094 2.005C2.85031 1.87312 3.00458 1.74656 3.16375 1.62531C3.3475 1.48594 3.53875 1.35375 3.73312 1.23063C3.88542 1.13438 4.04104 1.04323 4.2 0.957188C5.32585 0.347894 6.58219 0.0195224 7.86219 0H8.13781C8.29094 0.0021875 8.44281 0.009375 8.59375 0.0203125Z" fill="#32314B"/>
<path d="M3.87094 1.23109C3.86808 1.24132 3.86808 1.25212 3.87094 1.26234L3.98063 1.59859C3.98399 1.60994 3.98372 1.62206 3.97988 1.63325C3.97603 1.64444 3.96878 1.65415 3.95915 1.66103C3.94952 1.66791 3.93798 1.67161 3.92615 1.67162C3.91431 1.67163 3.90277 1.66795 3.89313 1.66109L3.60656 1.45328C3.59687 1.44629 3.58523 1.44253 3.57328 1.44253C3.56133 1.44253 3.54969 1.44629 3.54 1.45328L3.25344 1.66109C3.24567 1.66683 3.23657 1.67049 3.22699 1.67172C3.21741 1.67294 3.20767 1.67169 3.19871 1.66809C3.18975 1.66449 3.18186 1.65865 3.1758 1.65113C3.16973 1.64362 3.16569 1.63468 3.16406 1.62516C3.34781 1.48578 3.53906 1.35359 3.73344 1.23047C3.88573 1.13422 4.04135 1.04307 4.20031 0.957031C4.19673 0.96969 4.18889 0.980727 4.17812 0.988281L3.89156 1.19641C3.88074 1.20512 3.87342 1.21743 3.87094 1.23109Z" fill="#DBDBDB"/>
<path d="M3.60844 3.10493L3.555 3.17493C3.52594 3.21337 3.49719 3.2518 3.46875 3.29087L3.52 3.13462C3.52258 3.12583 3.52724 3.11779 3.53359 3.11119C3.53994 3.10459 3.54779 3.09962 3.55648 3.09671C3.56516 3.09379 3.57442 3.09302 3.58346 3.09445C3.59251 3.09588 3.60108 3.09948 3.60844 3.10493Z" fill="#DBDBDB"/>
<path d="M2.1543 3.61203L2.04086 3.69422L1.86774 3.81922C1.85824 3.82621 1.85116 3.83599 1.84746 3.84718C1.84377 3.85838 1.84365 3.87045 1.84711 3.88172L1.95742 4.21984C1.96058 4.23116 1.96019 4.24317 1.95628 4.25425C1.95237 4.26533 1.94515 4.27494 1.93559 4.28177C1.92602 4.2886 1.91459 4.29232 1.90284 4.29242C1.8911 4.29252 1.8796 4.28901 1.86992 4.28234L1.58367 4.07391C1.57394 4.06689 1.56224 4.06311 1.55024 4.06311C1.53823 4.06311 1.52653 4.06689 1.5168 4.07391L1.23024 4.28234C1.22056 4.28901 1.20906 4.29252 1.19731 4.29242C1.18557 4.29232 1.17413 4.2886 1.16457 4.28177C1.15501 4.27494 1.14779 4.26533 1.14388 4.25425C1.13997 4.24317 1.13957 4.23116 1.14274 4.21984L1.25242 3.88328C1.25575 3.872 1.25556 3.85998 1.25187 3.84881C1.24819 3.83764 1.24118 3.82787 1.2318 3.82078L1.19367 3.79297C1.21399 3.76172 1.23461 3.72797 1.25617 3.69516C1.37024 3.51734 1.49117 3.34359 1.61867 3.17578L1.71367 3.46984C1.71737 3.48128 1.72459 3.49124 1.7343 3.49832C1.74402 3.50539 1.75572 3.50921 1.76774 3.50922H2.12305C2.13476 3.50986 2.14599 3.51408 2.15523 3.52132C2.16446 3.52856 2.17124 3.53847 2.17465 3.54969C2.17806 3.56091 2.17794 3.57292 2.1743 3.58407C2.17066 3.59522 2.16367 3.60498 2.1543 3.61203Z" fill="#DBDBDB"/>
<path d="M2.15522 6.2803L2.11115 6.31155L1.86865 6.48812C1.85901 6.49499 1.85182 6.50475 1.84811 6.51599C1.8444 6.52723 1.84437 6.53936 1.84803 6.55062L1.9574 6.88718C1.96077 6.89853 1.9605 6.91064 1.95665 6.92183C1.9528 6.93302 1.94556 6.94274 1.93593 6.94962C1.9263 6.95649 1.91476 6.9602 1.90293 6.96021C1.89109 6.96022 1.87955 6.95654 1.8699 6.94968L1.58365 6.74155C1.57392 6.73454 1.56222 6.73076 1.55022 6.73076C1.53821 6.73076 1.52652 6.73454 1.51678 6.74155L1.23022 6.94968C1.22057 6.95654 1.20903 6.96022 1.19719 6.96021C1.18536 6.9602 1.17382 6.95649 1.16419 6.94962C1.15456 6.94274 1.14732 6.93302 1.14347 6.92183C1.13962 6.91064 1.13935 6.89853 1.14272 6.88718L1.2524 6.55062C1.25592 6.53935 1.25582 6.52727 1.25212 6.51606C1.24842 6.50485 1.24131 6.49508 1.23178 6.48812L0.945216 6.27968C0.935531 6.27261 0.928328 6.26266 0.924637 6.25125C0.920945 6.23984 0.920955 6.22756 0.924664 6.21615C0.928372 6.20475 0.935591 6.19481 0.945287 6.18775C0.954984 6.1807 0.966662 6.17689 0.978654 6.17687H1.33365C1.34235 6.17686 1.35093 6.17485 1.35873 6.171C1.36653 6.16716 1.37335 6.16157 1.37865 6.15468C1.38253 6.14944 1.38558 6.14365 1.38772 6.13749L1.49709 5.80093C1.50082 5.78953 1.50805 5.7796 1.51776 5.77255C1.52747 5.76551 1.53916 5.76172 1.55115 5.76172C1.56315 5.76172 1.57484 5.76551 1.58455 5.77255C1.59426 5.7796 1.60149 5.78953 1.60522 5.80093L1.71459 6.13749C1.71673 6.14365 1.71978 6.14944 1.72365 6.15468C1.72896 6.16157 1.73577 6.16716 1.74357 6.171C1.75138 6.17485 1.75996 6.17686 1.76865 6.17687H2.12397C2.13034 6.17689 2.13668 6.17795 2.14272 6.17999C2.15251 6.1836 2.16113 6.18983 2.16763 6.198C2.17412 6.20618 2.17824 6.21598 2.17953 6.22634C2.18082 6.2367 2.17923 6.24722 2.17494 6.25673C2.17066 6.26625 2.16383 6.27441 2.15522 6.2803Z" fill="#DBDBDB"/>
<path d="M2.86054 2.46141C2.85695 2.4728 2.85695 2.48502 2.86054 2.49641L2.96898 2.83297C2.97227 2.84427 2.97196 2.85631 2.96812 2.86744C2.96427 2.87856 2.95707 2.88821 2.9475 2.89507C2.93794 2.90193 2.92648 2.90565 2.91471 2.90572C2.90294 2.90579 2.89144 2.90221 2.88179 2.89547L2.59523 2.68703C2.58549 2.68001 2.57379 2.67624 2.56179 2.67624C2.54979 2.67624 2.53809 2.68001 2.52835 2.68703L2.24179 2.89547C2.23214 2.90221 2.22064 2.90579 2.20887 2.90572C2.19711 2.90565 2.18565 2.90193 2.17608 2.89507C2.16652 2.88821 2.15931 2.87856 2.15547 2.86744C2.15162 2.85631 2.15132 2.84427 2.1546 2.83297L2.26398 2.49641C2.26758 2.48502 2.26758 2.4728 2.26398 2.46141C2.26189 2.45183 2.25712 2.44305 2.25023 2.43609C2.39606 2.28609 2.54658 2.14203 2.70179 2.00391L2.72679 2.08109C2.7303 2.09286 2.73752 2.10318 2.74738 2.1105C2.75724 2.11782 2.7692 2.12176 2.78148 2.12172H3.13554C3.14752 2.12185 3.15915 2.12574 3.1688 2.13283C3.17845 2.13993 3.18563 2.14987 3.18932 2.16126C3.19302 2.17266 3.19304 2.18492 3.18939 2.19633C3.18574 2.20774 3.1786 2.21771 3.16898 2.22484L2.88242 2.43266C2.87216 2.43957 2.86447 2.44968 2.86054 2.46141Z" fill="#DBDBDB"/>
<path d="M1.25828 4.92391C1.25749 4.9317 1.25501 4.93924 1.25102 4.94598C1.24702 4.95273 1.24161 4.95852 1.23516 4.96297L0.948594 5.17141C0.939137 5.17843 0.932081 5.1882 0.928389 5.19939C0.924698 5.21058 0.924551 5.22263 0.927969 5.23391L1.03734 5.57078C1.04084 5.58211 1.04068 5.59426 1.03689 5.6055C1.03311 5.61674 1.02588 5.6265 1.01624 5.63341C1.00661 5.64032 0.995039 5.64403 0.983179 5.644C0.97132 5.64398 0.959768 5.64023 0.950156 5.63328L0.663594 5.42547C0.653975 5.41817 0.642231 5.41422 0.630156 5.41422C0.618081 5.41422 0.606338 5.41817 0.596719 5.42547L0.371094 5.58953C0.442552 5.36203 0.523802 5.13953 0.614844 4.92203C0.653594 4.82828 0.694219 4.73641 0.737031 4.64453L0.793594 4.81922C0.797279 4.83068 0.804489 4.84069 0.814197 4.84782C0.823904 4.85495 0.835614 4.85883 0.847656 4.85891H1.20172C1.2099 4.85887 1.21799 4.86059 1.22544 4.86396C1.23289 4.86734 1.23953 4.87228 1.24489 4.87845C1.25026 4.88461 1.25424 4.89187 1.25655 4.89971C1.25886 4.90756 1.25945 4.91581 1.25828 4.92391Z" fill="#DBDBDB"/>
<path d="M0.94625 7.8553C0.936721 7.86227 0.92961 7.87204 0.925911 7.88325C0.922213 7.89445 0.922113 7.90654 0.925625 7.9178L1.035 8.25499C1.03849 8.26633 1.03833 8.27847 1.03455 8.28971C1.03076 8.30095 1.02354 8.31071 1.0139 8.31762C1.00426 8.32453 0.992695 8.32824 0.980836 8.32821C0.968976 8.32819 0.957424 8.32444 0.947812 8.31749L0.66125 8.10968C0.65157 8.10252 0.63985 8.09866 0.627813 8.09866C0.615775 8.09866 0.604055 8.10252 0.594375 8.10968L0.308125 8.31874C0.29852 8.32582 0.286924 8.32967 0.274996 8.32976C0.263068 8.32984 0.251417 8.32616 0.241711 8.31922C0.232004 8.31229 0.224738 8.30246 0.220951 8.29115C0.217164 8.27984 0.21705 8.26762 0.220625 8.25624L0.33 7.91905C0.333609 7.90779 0.333558 7.89568 0.329852 7.88445C0.326146 7.87322 0.318978 7.86346 0.309375 7.85655L0.0228125 7.64687C0.0168064 7.6426 0.0117077 7.63718 0.0078125 7.63093C0.0078125 7.60937 0.0096875 7.58781 0.0109375 7.56656C0.0161356 7.55947 0.0229731 7.55375 0.0308646 7.54989C0.0387561 7.54602 0.0474665 7.54413 0.05625 7.54437H0.410312C0.422355 7.54429 0.434065 7.54041 0.443772 7.53328C0.45348 7.52615 0.46069 7.51614 0.464375 7.50468L0.503437 7.38468L0.57375 7.16812C0.577475 7.15672 0.58471 7.14678 0.59442 7.13974C0.60413 7.1327 0.615818 7.12891 0.627813 7.12891C0.639807 7.12891 0.651495 7.1327 0.661205 7.13974C0.670915 7.14678 0.67815 7.15672 0.681875 7.16812L0.752187 7.38468L0.79125 7.50468C0.794935 7.51614 0.802145 7.52615 0.811853 7.53328C0.821561 7.54041 0.83327 7.54429 0.845312 7.54437H1.19938C1.21138 7.54427 1.22311 7.548 1.23286 7.55502C1.2426 7.56203 1.24986 7.57197 1.25359 7.58339C1.25731 7.5948 1.25731 7.60711 1.25357 7.61852C1.24984 7.62993 1.24257 7.63986 1.23281 7.64687L0.94625 7.8553Z" fill="#DBDBDB"/>
<path d="M1.93359 7.60141C1.93364 7.58881 1.93769 7.57655 1.94516 7.56641C1.94516 7.58766 1.94297 7.60922 1.94203 7.63078C1.93919 7.62647 1.93708 7.62172 1.93578 7.61672C1.93578 7.61391 1.93578 7.61141 1.93422 7.60891C1.93384 7.60642 1.93363 7.60392 1.93359 7.60141Z" fill="white"/>
<path d="M2.61694 4.4861L2.72631 4.82298C2.73013 4.83456 2.73756 4.84461 2.74752 4.85164C2.75748 4.85867 2.76943 4.86232 2.78162 4.86204H3.13569C3.14768 4.86206 3.15936 4.86587 3.16905 4.87293C3.17875 4.87998 3.18597 4.88992 3.18968 4.90133C3.19338 4.91273 3.19339 4.92501 3.1897 4.93642C3.18601 4.94783 3.17881 4.95778 3.16912 4.96485L2.88256 5.17298C2.87303 5.17994 2.86592 5.18971 2.86222 5.20092C2.85852 5.21213 2.85842 5.22421 2.86194 5.23548L2.96912 5.57329C2.97262 5.58463 2.97246 5.59677 2.96867 5.60801C2.96488 5.61925 2.95766 5.62901 2.94802 5.63592C2.93838 5.64283 2.92682 5.64654 2.91496 5.64651C2.9031 5.64649 2.89155 5.64274 2.88194 5.63579L2.59537 5.42767C2.58564 5.42065 2.57394 5.41687 2.56194 5.41687C2.54993 5.41687 2.53823 5.42065 2.5285 5.42767L2.24194 5.63579C2.23232 5.64274 2.22077 5.64649 2.20891 5.64651C2.19705 5.64654 2.18549 5.64283 2.17585 5.63592C2.16621 5.62901 2.15899 5.61925 2.1552 5.60801C2.15141 5.59677 2.15126 5.58463 2.15475 5.57329L2.26412 5.23642C2.26764 5.22515 2.26753 5.21307 2.26384 5.20186C2.26014 5.19065 2.25303 5.18088 2.2435 5.17392L1.95694 4.96579C1.94725 4.95872 1.94005 4.94877 1.93636 4.93736C1.93266 4.92595 1.93267 4.91367 1.93638 4.90226C1.94009 4.89086 1.94731 4.88092 1.95701 4.87387C1.9667 4.86681 1.97838 4.863 1.99037 4.86298H2.34412C2.3561 4.86299 2.36777 4.85922 2.37748 4.8522C2.38719 4.84519 2.39443 4.83529 2.39819 4.82392L2.50756 4.48704C2.51085 4.47513 2.51794 4.46461 2.52774 4.45708C2.53754 4.44955 2.54953 4.44542 2.56189 4.44531C2.57425 4.44521 2.58631 4.44913 2.59625 4.45649C2.60618 4.46385 2.61344 4.47425 2.61694 4.4861Z" fill="white"/>
<path d="M2.66887 4.64484C2.62606 4.7364 2.58544 4.82827 2.54669 4.92202C2.45564 5.13973 2.37439 5.36213 2.30294 5.58921L2.242 5.63296C2.23239 5.63991 2.22083 5.64366 2.20897 5.64368C2.19712 5.6437 2.18555 5.64 2.17591 5.63309C2.16627 5.62618 2.15905 5.61642 2.15526 5.60518C2.15148 5.59394 2.15132 5.58179 2.15481 5.57046L2.26419 5.23359C2.2677 5.22232 2.2676 5.21024 2.2639 5.19903C2.2602 5.18782 2.25309 5.17805 2.24356 5.17109L1.957 4.96265C1.95054 4.9582 1.94513 4.95241 1.94114 4.94566C1.93714 4.93892 1.93466 4.93138 1.93387 4.92359C1.93309 4.91568 1.93397 4.90771 1.93645 4.90016C1.93893 4.89262 1.94297 4.88568 1.9483 4.8798C1.95363 4.87391 1.96013 4.8692 1.96739 4.86598C1.97464 4.86276 1.98249 4.86109 1.99044 4.86109H2.34325C2.35529 4.86101 2.367 4.85713 2.37671 4.85C2.38641 4.84287 2.39363 4.83286 2.39731 4.8214L2.50669 4.48452C2.51041 4.47312 2.51765 4.46319 2.52735 4.45615C2.53706 4.4491 2.54875 4.44531 2.56075 4.44531C2.57274 4.44531 2.58443 4.4491 2.59414 4.45615C2.60385 4.46319 2.61108 4.47312 2.61481 4.48452L2.66887 4.64484Z" fill="#DBDBDB"/>
<path d="M3.62684 3.13296L3.73621 3.46984C3.73996 3.48121 3.74721 3.49111 3.75692 3.49812C3.76663 3.50514 3.7783 3.50891 3.79028 3.5089H4.14434C4.15633 3.50892 4.16801 3.51273 4.1777 3.51978C4.1874 3.52684 4.19462 3.53678 4.19833 3.54818C4.20204 3.55959 4.20205 3.57187 4.19836 3.58328C4.19466 3.59469 4.18746 3.60464 4.17778 3.61171L3.89121 3.81984C3.88176 3.82686 3.8747 3.83664 3.87101 3.84782C3.86732 3.85901 3.86717 3.87106 3.87059 3.88234L3.98028 4.21984C3.98364 4.23118 3.98338 4.2433 3.97953 4.25449C3.97568 4.26568 3.96843 4.27539 3.9588 4.28227C3.94917 4.28915 3.93763 4.29285 3.9258 4.29287C3.91396 4.29288 3.90242 4.2892 3.89278 4.28234L3.60621 4.07421C3.59652 4.06722 3.58488 4.06346 3.57293 4.06346C3.56098 4.06346 3.54934 4.06722 3.53965 4.07421L3.25309 4.28234C3.24344 4.2892 3.2319 4.29288 3.22007 4.29287C3.20823 4.29285 3.19669 4.28915 3.18706 4.28227C3.17743 4.27539 3.17019 4.26568 3.16634 4.25449C3.16249 4.2433 3.16223 4.23118 3.16559 4.21984L3.27496 3.88296C3.27852 3.8717 3.27845 3.8596 3.27475 3.84838C3.27104 3.83716 3.2639 3.82739 3.25434 3.82046L2.96871 3.61171C2.95916 3.60476 2.95201 3.595 2.94826 3.5838C2.9445 3.57259 2.94433 3.5605 2.94777 3.54919C2.95121 3.53788 2.95808 3.52793 2.96743 3.52071C2.97679 3.51349 2.98816 3.50936 2.99996 3.5089H3.35403C3.36623 3.50923 3.3782 3.5056 3.38817 3.49856C3.39814 3.49152 3.40557 3.48144 3.40934 3.46984L3.51871 3.13296C3.52244 3.12156 3.52967 3.11163 3.53938 3.10458C3.54909 3.09754 3.56078 3.09375 3.57278 3.09375C3.58477 3.09375 3.59646 3.09754 3.60617 3.10458C3.61588 3.11163 3.62311 3.12156 3.62684 3.13296Z" fill="white"/>
<path d="M2.99978 3.50781H3.31228C3.2704 3.57031 3.22978 3.63094 3.18978 3.69313L3.1554 3.74781L3.07978 3.69313L2.96853 3.61094C2.95903 3.60392 2.95194 3.59414 2.94822 3.58294C2.9445 3.57173 2.94435 3.55965 2.94777 3.54835C2.95119 3.53705 2.95803 3.52709 2.96734 3.51983C2.97665 3.51257 2.98798 3.50837 2.99978 3.50781Z" fill="#DBDBDB"/>
<path d="M4.63647 1.74775L4.74584 2.08462C4.74955 2.09602 4.75679 2.10595 4.7665 2.11297C4.77622 2.11999 4.78792 2.12374 4.7999 2.12369H5.15522C5.16702 2.12415 5.17839 2.12828 5.18775 2.1355C5.1971 2.14272 5.20397 2.15267 5.20741 2.16398C5.21085 2.17528 5.21068 2.18738 5.20692 2.19858C5.20317 2.20979 5.19602 2.21954 5.18647 2.2265L4.8999 2.43462C4.89034 2.44155 4.8832 2.45132 4.8795 2.46254C4.87579 2.47376 4.87572 2.48586 4.87928 2.49712L4.98865 2.834C4.99202 2.84535 4.99175 2.85746 4.9879 2.86865C4.98405 2.87984 4.97681 2.88955 4.96718 2.89643C4.95755 2.90331 4.94601 2.90702 4.93418 2.90703C4.92234 2.90704 4.9108 2.90336 4.90115 2.8965L4.6149 2.68837C4.60517 2.68135 4.59347 2.67758 4.58147 2.67758C4.56946 2.67758 4.55777 2.68135 4.54803 2.68837L4.26147 2.8965C4.25182 2.90336 4.24028 2.90704 4.22844 2.90703C4.21661 2.90702 4.20507 2.90331 4.19544 2.89643C4.18581 2.88955 4.17857 2.87984 4.17472 2.86865C4.17087 2.85746 4.17061 2.84535 4.17397 2.834L4.28365 2.49712C4.28707 2.48585 4.28693 2.47379 4.28323 2.46261C4.27954 2.45142 4.27249 2.44165 4.26303 2.43462L3.97647 2.2265C3.96678 2.21943 3.95958 2.20948 3.95589 2.19807C3.9522 2.18666 3.9522 2.17437 3.95591 2.16297C3.95962 2.15157 3.96684 2.14163 3.97654 2.13457C3.98623 2.12752 3.99791 2.12371 4.0099 2.12369H4.36397C4.37594 2.1237 4.38762 2.11992 4.39732 2.11291C4.40703 2.1059 4.41428 2.096 4.41803 2.08462L4.5274 1.74775C4.53089 1.73599 4.53808 1.72567 4.54791 1.71833C4.55773 1.711 4.56967 1.70703 4.58194 1.70703C4.5942 1.70703 4.60614 1.711 4.61596 1.71833C4.62579 1.72567 4.63298 1.73599 4.63647 1.74775Z" fill="white"/>
<path d="M4.70128 1.94655C4.67846 1.96562 4.65596 1.9853 4.63346 2.0053C4.49034 2.13187 4.35221 2.26405 4.21846 2.4003L3.9769 2.22499C3.96708 2.21797 3.95975 2.208 3.95598 2.19653C3.9522 2.18506 3.95217 2.17268 3.9559 2.1612C3.95962 2.14971 3.96691 2.13971 3.97669 2.13264C3.98648 2.12557 3.99826 2.1218 4.01034 2.12187H4.3644C4.3764 2.12181 4.38808 2.11797 4.39779 2.11091C4.40749 2.10384 4.41472 2.0939 4.41846 2.08249L4.52784 1.74624C4.53156 1.73484 4.5388 1.72491 4.54851 1.71787C4.55822 1.71082 4.56991 1.70703 4.5819 1.70703C4.59389 1.70703 4.60558 1.71082 4.61529 1.71787C4.625 1.72491 4.63224 1.73484 4.63596 1.74624L4.70128 1.94655Z" fill="#DBDBDB"/>
<path d="M5.64818 0.513448L5.75756 0.850011C5.76132 0.861649 5.76873 0.871765 5.7787 0.878857C5.78866 0.88595 5.80064 0.889642 5.81287 0.889386H6.16694C6.17893 0.889406 6.19061 0.893216 6.2003 0.900271C6.21 0.907327 6.21722 0.917266 6.22093 0.92867C6.22463 0.940074 6.22464 0.952358 6.22095 0.963768C6.21726 0.975177 6.21006 0.985128 6.20037 0.992198L5.91381 1.20032C5.90428 1.20729 5.89717 1.21706 5.89347 1.22826C5.88977 1.23947 5.88967 1.25156 5.89319 1.26282L6.00037 1.60064C6.00387 1.61197 6.00371 1.62411 5.99992 1.63535C5.99613 1.64659 5.98891 1.65636 5.97927 1.66326C5.96963 1.67017 5.95807 1.67388 5.94621 1.67386C5.93435 1.67383 5.9228 1.67008 5.91319 1.66314L5.62662 1.45501C5.61689 1.44799 5.60519 1.44422 5.59319 1.44422C5.58118 1.44422 5.56948 1.44799 5.55975 1.45501L5.27318 1.66314C5.26357 1.67008 5.25202 1.67383 5.24016 1.67386C5.2283 1.67388 5.21674 1.67017 5.2071 1.66326C5.19746 1.65636 5.19024 1.64659 5.18645 1.63535C5.18266 1.62411 5.1825 1.61197 5.186 1.60064L5.29537 1.26376C5.29888 1.25249 5.29878 1.24041 5.29509 1.2292C5.29139 1.21799 5.28428 1.20822 5.27475 1.20126L4.98819 0.993136C4.9785 0.986065 4.9713 0.976115 4.96761 0.964705C4.96391 0.953296 4.96392 0.941011 4.96763 0.929608C4.97134 0.918204 4.97856 0.908264 4.98826 0.901209C4.99795 0.894154 5.00963 0.890343 5.02162 0.890323H5.37537C5.38739 0.890312 5.39909 0.886496 5.4088 0.879422C5.41852 0.872348 5.42574 0.862381 5.42943 0.850948L5.53881 0.514386C5.5421 0.502471 5.54919 0.491953 5.55899 0.484424C5.56879 0.476894 5.58078 0.472764 5.59314 0.472658C5.6055 0.472552 5.61756 0.476476 5.62749 0.483836C5.63743 0.491196 5.64469 0.501591 5.64818 0.513448Z" fill="white"/>
<path d="M6.21403 0.916242C6.18716 0.929992 6.1606 0.94468 6.13403 0.958742C5.97487 1.04478 5.81924 1.13593 5.66716 1.23218C5.50841 1.33176 5.35372 1.43718 5.2031 1.54843L5.29685 1.26312C5.2997 1.2529 5.2997 1.24209 5.29685 1.23187C5.29377 1.21856 5.286 1.2068 5.27497 1.19874L4.98841 0.990617C4.97865 0.983612 4.97138 0.973684 4.96765 0.962271C4.96391 0.950858 4.96391 0.938553 4.96763 0.927136C4.97136 0.91572 4.97862 0.905785 4.98836 0.89877C4.99811 0.891755 5.00984 0.888024 5.02185 0.888117H5.37497C5.38696 0.888176 5.39865 0.884424 5.40837 0.877403C5.41809 0.870382 5.42532 0.860455 5.42903 0.849055L5.53841 0.511867C5.54213 0.500466 5.54937 0.490534 5.55908 0.483491C5.56879 0.476449 5.58048 0.472656 5.59247 0.472656C5.60447 0.472656 5.61615 0.476449 5.62586 0.483491C5.63557 0.490534 5.64281 0.500466 5.64653 0.511867L5.75591 0.849055C5.75968 0.860933 5.76727 0.871231 5.7775 0.878352C5.78773 0.885472 5.80002 0.889015 5.81247 0.88843H6.16653C6.17619 0.888516 6.18565 0.891129 6.19399 0.896008C6.20232 0.900887 6.20923 0.907863 6.21403 0.916242Z" fill="#DBDBDB"/>
<path d="M15.04 8.50578C15.321 8.50578 15.5487 8.27801 15.5487 7.99703C15.5487 7.71606 15.321 7.48828 15.04 7.48828C14.759 7.48828 14.5312 7.71606 14.5312 7.99703C14.5312 8.27801 14.759 8.50578 15.04 8.50578Z" fill="#E54141"/>
<path d="M13.9814 8.35734C14.1804 8.35734 14.3417 8.19603 14.3417 7.99703C14.3417 7.79804 14.1804 7.63672 13.9814 7.63672C13.7824 7.63672 13.6211 7.79804 13.6211 7.99703C13.6211 8.19603 13.7824 8.35734 13.9814 8.35734Z" fill="#E54141"/>
</g>
<defs>
<clipPath id="clip0_1483_10918">
<rect width="16" height="16" fill="white"/>
</clipPath>
</defs>
</svg>
