<svg width="16" height="16" viewBox="0 0 16 16" fill="none" xmlns="http://www.w3.org/2000/svg">
<g clip-path="url(#clip0_1483_10863)">
<path d="M8 16C12.4183 16 16 12.4183 16 8C16 3.58172 12.4183 0 8 0C3.58172 0 0 3.58172 0 8C0 12.4183 3.58172 16 8 16Z" fill="#D80027"/>
<path d="M4.37812 4.87109L5.06875 6.99609H7.30312L5.49687 8.31172L6.1875 10.4367L4.37812 9.12422L2.56875 10.4367L3.2625 8.31172L1.45312 6.99609H3.6875L4.37812 4.87109Z" fill="#FFDA44"/>
<path d="M9.48203 12.3898L8.95391 11.7398L8.17266 12.043L8.62578 11.3398L8.09766 10.6867L8.90703 10.9023L9.36328 10.1992L9.40703 11.0367L10.2195 11.2523L9.43516 11.5523L9.48203 12.3898Z" fill="#FFDA44"/>
<path d="M10.532 10.4836L10.782 9.68359L10.0977 9.19922L10.9352 9.18672L11.182 8.38672L11.4539 9.18047L12.2914 9.17109L11.6195 9.67109L11.8883 10.4648L11.2039 9.98047L10.532 10.4836Z" fill="#FFDA44"/>
<path d="M11.9523 5.86953L11.5836 6.62266L12.1836 7.20703L11.3555 7.08828L10.9867 7.83828L10.843 7.01328L10.0117 6.89453L10.7555 6.50391L10.6117 5.67578L11.2117 6.26016L11.9523 5.86953Z" fill="#FFDA44"/>
<path d="M9.50547 3.58984L9.44297 4.42422L10.2211 4.73984L9.40547 4.93984L9.34609 5.77734L8.90547 5.06484L8.08984 5.26484L8.63047 4.62422L8.18672 3.91484L8.96484 4.23047L9.50547 3.58984Z" fill="#FFDA44"/>
</g>
<defs>
<clipPath id="clip0_1483_10863">
<rect width="16" height="16" fill="white"/>
</clipPath>
</defs>
</svg>
