<svg width="16" height="16" viewBox="0 0 16 16" fill="none" xmlns="http://www.w3.org/2000/svg">
<g clip-path="url(#clip0_1483_10850)">
<path d="M15.4676 5.30494H0.53125C1.63459 2.24791 4.56137 0.0625 7.99944 0.0625C11.4375 0.0625 14.3643 2.24791 15.4676 5.30494Z" fill="#ED1C24"/>
<path d="M15.9375 7.99975C15.9375 8.95744 15.768 9.87584 15.4571 10.7257H0.542969C0.232031 9.87584 0.0625 8.95744 0.0625 7.99975C0.0625 7.05375 0.227781 6.146 0.531812 5.30469H15.4682C15.7723 6.146 15.9375 7.05375 15.9375 7.99975Z" fill="#F1F2F2"/>
<path d="M15.4571 10.7266C14.3453 13.7676 11.4264 15.9382 8 15.9382C4.57363 15.9382 1.65478 13.7676 0.542969 10.7266H15.4571Z" fill="#21409A"/>
</g>
<defs>
<clipPath id="clip0_1483_10850">
<rect width="16" height="16" fill="white"/>
</clipPath>
</defs>
</svg>
