<svg width="16" height="16" viewBox="0 0 16 16" fill="none" xmlns="http://www.w3.org/2000/svg">
<g clip-path="url(#clip0_1483_10836)">
<path d="M16 8C16 12.4183 12.4183 16 8 16C3.58175 16 0 12.4183 0 8C2.74781 5.25219 5.07825 2.92175 8 0C12.4183 0 16 3.58175 16 8Z" fill="#D80027"/>
<path d="M8 8C8 3.58175 8 3.06087 8 0C3.58175 0 0 3.58175 0 8H8Z" fill="#0052B4"/>
<path d="M6.95797 4.68081L5.98094 5.14044L6.50119 6.08666L5.44028 5.88366L5.30581 6.95544L4.56687 6.16719L3.82787 6.95544L3.69347 5.88366L2.63253 6.08659L3.15278 5.14037L2.17578 4.68081L3.15281 4.22128L2.63253 3.27503L3.69344 3.478L3.82791 2.40625L4.56687 3.1945L5.30584 2.40625L5.44028 3.478L6.50122 3.27503L5.98094 4.22131L6.95797 4.68081Z" fill="#F0F0F0"/>
<path d="M4.56728 6.16972C5.38972 6.16972 6.05644 5.503 6.05644 4.68056C6.05644 3.85812 5.38972 3.19141 4.56728 3.19141C3.74484 3.19141 3.07812 3.85812 3.07812 4.68056C3.07812 5.503 3.74484 6.16972 4.56728 6.16972Z" fill="#0052B4"/>
<path d="M4.56691 5.47762C4.12937 5.47762 3.77344 5.12166 3.77344 4.68412C3.77344 4.24659 4.12941 3.89062 4.56691 3.89062C5.00444 3.89062 5.36041 4.24659 5.36041 4.68412C5.36037 5.12166 5.00437 5.47762 4.56691 5.47762Z" fill="#F0F0F0"/>
</g>
<defs>
<clipPath id="clip0_1483_10836">
<rect width="16" height="16" fill="white"/>
</clipPath>
</defs>
</svg>
